<?xml version="1.0" standalone="no"?>
<!DOCTYPE svg PUBLIC "-//W3C//DTD SVG 20010904//EN"
 "http://www.w3.org/TR/2001/REC-SVG-20010904/DTD/svg10.dtd">
<svg version="1.0" xmlns="http://www.w3.org/2000/svg"
 width="1024.000000pt" height="1024.000000pt" viewBox="0 0 1024.000000 1024.000000"
 preserveAspectRatio="xMidYMid meet">

<g transform="translate(0.000000,1024.000000) scale(0.100000,-0.100000)"
fill="#000000" stroke="none">
<path d="M4998 9513 c-22 -3 -28 -10 -28 -29 l0 -26 33 20 c34 21 123 24 236
7 44 -6 53 -5 49 6 -3 8 -22 17 -44 21 -41 7 -200 8 -246 1z"/>
<path d="M4971 9375 c1 -41 5 -75 10 -75 4 0 7 34 6 75 -1 41 -5 75 -10 75 -4
0 -7 -34 -6 -75z"/>
<path d="M4970 9281 c0 -6 5 -13 10 -16 6 -3 10 1 10 9 0 9 -4 16 -10 16 -5 0
-10 -4 -10 -9z"/>
<path d="M5306 9145 c2 -66 3 -139 4 -161 0 -33 4 -43 20 -47 21 -5 22 0 24
133 1 33 3 35 36 34 94 -4 223 -14 228 -19 3 -3 17 -5 32 -5 18 0 27 5 27 16
0 14 -9 16 -56 11 -33 -3 -48 -2 -36 3 15 6 6 9 -35 13 -30 2 -14 3 35 0 50
-2 106 -8 125 -12 l35 -9 -32 -1 c-25 -1 -31 -4 -26 -17 4 -12 15 -15 42 -11
49 6 201 -12 226 -28 11 -7 45 -16 75 -19 30 -4 89 -18 130 -31 41 -13 95 -29
120 -36 57 -16 52 -15 70 -22 8 -3 33 -9 55 -12 33 -6 37 -9 20 -15 -17 -8
-16 -9 8 -9 19 -1 26 -5 21 -13 -5 -8 -2 -9 11 -5 9 4 23 3 29 -1 6 -5 24 -12
39 -16 15 -4 25 -11 22 -16 -3 -6 -1 -10 4 -10 6 0 34 -11 62 -24 28 -14 58
-22 66 -19 10 4 14 2 10 -4 -4 -6 0 -13 7 -16 8 -3 17 -1 20 6 3 8 7 9 13 2 4
-5 13 -10 18 -11 24 -1 105 -46 105 -58 0 -7 26 -23 57 -37 70 -29 82 -33 65
-21 -11 7 -11 10 3 15 17 7 89 -28 194 -93 34 -22 66 -40 70 -40 3 0 -23 19
-57 41 -94 60 -67 59 31 -1 87 -53 153 -110 127 -110 -13 0 35 -40 73 -61 31
-17 18 -2 -23 26 -22 15 -38 30 -36 33 6 5 102 -57 99 -64 -2 -2 0 -5 5 -6 4
-1 18 -12 31 -24 26 -24 50 -22 30 2 -6 8 -33 28 -60 46 -27 17 -46 35 -43 39
3 5 -3 6 -12 2 -11 -4 -15 -3 -11 4 7 10 -48 49 -178 126 -88 52 -155 88 -155
83 0 -3 14 -13 31 -21 17 -9 28 -19 25 -22 -3 -3 -48 18 -100 46 -53 28 -96
47 -96 42 0 -5 14 -14 32 -20 17 -6 29 -14 25 -17 -3 -3 -14 -1 -25 5 -11 6
-28 8 -38 4 -11 -4 -15 -3 -10 5 3 6 1 14 -5 18 -8 5 -8 8 0 14 7 4 1 11 -16
18 -26 11 -27 11 -9 -3 17 -12 17 -15 4 -15 -21 0 -81 31 -91 48 -12 18 -60
40 -76 34 -8 -2 -11 0 -8 6 9 13 -48 36 -64 26 -8 -4 -10 -3 -5 4 9 15 1 15
-27 1 -22 -10 -22 -10 -2 7 20 16 20 16 -3 11 -12 -3 -20 -1 -17 3 3 5 -5 12
-17 15 -53 16 -138 48 -135 51 2 2 37 -7 77 -21 40 -14 75 -23 77 -21 6 6
-319 113 -487 160 -167 47 -500 96 -650 96 -41 0 -92 3 -112 6 -36 6 -37 7
-41 58 -2 28 -2 -3 -1 -69z m1094 -190 c19 -7 28 -13 20 -13 -8 0 -31 6 -50
13 -19 7 -28 13 -20 13 8 0 31 -6 50 -13z m560 -275 c8 -5 11 -10 5 -10 -5 0
-17 5 -25 10 -8 5 -10 10 -5 10 6 0 17 -5 25 -10z"/>
<path d="M4860 9163 c-311 -29 -499 -58 -700 -108 -469 -116 -921 -311 -1282
-552 -87 -57 -158 -109 -158 -114 0 -6 -4 -8 -9 -5 -12 8 -43 -29 -34 -39 5
-4 2 -5 -4 -1 -15 9 -141 -92 -142 -113 -1 -8 -4 -11 -8 -8 -7 8 -33 -11 -33
-24 0 -5 13 -3 29 5 16 9 32 12 36 8 5 -4 5 -2 2 4 -4 7 5 19 18 28 14 9 23
21 20 26 -3 5 0 12 6 16 8 4 9 3 5 -4 -13 -22 9 -12 43 18 18 17 37 27 43 24
6 -4 8 -2 5 3 -8 13 101 96 114 87 5 -3 8 -2 7 3 -2 5 8 20 21 33 13 14 21 18
17 10 -4 -8 0 -6 9 5 9 11 21 19 26 17 6 -1 7 3 3 9 -5 9 -2 10 10 6 9 -4 15
-3 12 2 -15 23 410 259 443 246 8 -3 12 -3 8 1 -8 8 66 45 103 51 14 2 36 11
48 19 13 9 26 13 30 10 3 -3 -1 -6 -8 -6 -7 0 -11 -3 -7 -6 3 -3 18 1 34 9 36
20 158 67 173 67 7 0 26 7 43 15 69 31 203 75 249 81 35 5 46 10 36 16 -9 7
-2 8 20 4 20 -4 31 -2 27 4 -4 6 6 10 22 10 15 0 62 9 103 21 41 11 98 22 125
25 28 3 66 9 85 14 68 17 274 41 298 35 16 -4 29 -1 34 7 8 10 11 10 15 1 2
-8 22 -13 44 -13 24 0 38 -4 34 -10 -3 -5 -1 -10 6 -10 6 0 9 8 6 20 -3 12 -1
18 5 14 5 -4 8 -17 5 -30 -2 -13 0 -24 4 -24 5 0 9 23 9 50 0 28 -3 49 -7 48
-5 0 -24 -3 -43 -5z m-2280 -897 c0 -2 -8 -10 -17 -17 -16 -13 -17 -12 -4 4
13 16 21 21 21 13z"/>
<path d="M4976 9049 c6 -11 49 -10 84 1 18 5 9 7 -32 7 -32 0 -55 -4 -52 -8z"/>
<path d="M5833 9053 c9 -2 23 -2 30 0 6 3 -1 5 -18 5 -16 0 -22 -2 -12 -5z"/>
<path d="M4892 9019 c-16 -40 -5 -66 29 -71 19 -3 29 0 29 8 0 18 -17 27 -23
12 -2 -7 -9 7 -14 32 -10 44 -10 45 -21 19z"/>
<path d="M5003 9013 c-3 -8 -4 -65 -1 -128 l4 -113 -63 -12 c-87 -17 -72 -25
19 -10 61 9 74 9 83 -3 9 -12 13 -10 22 10 11 23 11 25 -11 21 -22 -4 -24 -1
-29 46 -3 28 0 57 5 64 7 8 7 12 -1 12 -13 0 -15 69 -2 103 7 18 6 24 -6 24
-8 0 -17 -7 -20 -14z"/>
<path d="M5100 9021 c0 -5 5 -11 11 -13 8 -3 12 -36 11 -98 0 -84 1 -90 9 -50
5 25 8 71 7 103 -2 31 1 59 7 61 6 3 -2 5 -17 5 -16 1 -28 -3 -28 -8z"/>
<path d="M5213 9017 l27 -11 1 -110 c1 -61 1 -117 0 -125 -2 -7 3 -11 10 -9 8
3 11 34 9 108 -2 58 -3 115 -3 127 1 13 -7 23 -21 27 -35 10 -53 5 -23 -7z"/>
<path d="M6660 8865 c14 -8 30 -14 35 -14 6 0 -1 6 -15 14 -14 8 -29 14 -35
14 -5 0 1 -6 15 -14z"/>
<path d="M6765 8820 c33 -16 65 -29 70 -29 13 1 -107 57 -120 57 -5 0 17 -13
50 -28z"/>
<path d="M5106 8770 c11 -4 45 -5 75 0 l54 8 -75 0 c-50 1 -68 -2 -54 -8z"/>
<path d="M6920 8750 c30 -16 60 -29 65 -29 6 0 -15 13 -45 29 -30 16 -59 29
-65 29 -5 0 15 -13 45 -29z"/>
<path d="M5288 8763 c7 -3 16 -2 19 1 4 3 -2 6 -13 5 -11 0 -14 -3 -6 -6z"/>
<path d="M5131 8734 c0 -11 3 -14 6 -6 3 7 2 16 -1 19 -3 4 -6 -2 -5 -13z"/>
<path d="M7000 8716 c0 -3 9 -10 20 -16 11 -6 20 -8 20 -6 0 3 -9 10 -20 16
-11 6 -20 8 -20 6z"/>
<path d="M4580 8590 c-9 -6 -10 -10 -3 -10 6 0 15 5 18 10 8 12 4 12 -15 0z"/>
<path d="M7270 8522 c0 -4 14 -16 30 -25 17 -10 30 -15 30 -10 0 4 -14 16 -30
25 -17 9 -30 14 -30 10z"/>
<path d="M4658 8503 c7 -3 16 -2 19 1 4 3 -2 6 -13 5 -11 0 -14 -3 -6 -6z"/>
<path d="M4697 8493 c5 -13 2 -15 -11 -10 -10 4 -15 3 -11 -3 10 -16 -12 -11
-26 6 -24 29 -162 3 -143 -27 3 -5 -2 -9 -10 -9 -22 0 -34 -57 -23 -102 5 -21
13 -38 17 -38 4 0 10 -9 13 -21 4 -15 2 -19 -9 -15 -8 3 -14 2 -14 -3 0 -5 10
-12 23 -16 l22 -7 -25 -8 c-14 -4 -45 -8 -69 -9 -24 -1 -41 -4 -37 -8 4 -4 40
-6 79 -4 103 4 75 -11 -78 -43 -354 -75 -741 -241 -1095 -471 -52 -34 -109
-75 -127 -91 -52 -47 -84 -69 -162 -110 -40 -21 -85 -50 -100 -63 -14 -13 -20
-21 -13 -17 21 12 13 -18 -8 -32 -12 -7 -18 -17 -15 -22 4 -6 11 -8 16 -4 5 3
6 10 3 16 -4 6 -2 8 4 4 5 -3 12 -1 14 6 3 7 7 8 10 3 3 -6 -11 -23 -31 -40
-20 -16 -30 -23 -23 -14 10 14 10 18 -3 23 -9 3 -14 2 -11 -3 9 -14 -57 -69
-81 -66 -12 1 -20 -2 -17 -6 3 -5 -15 -27 -38 -50 -24 -24 -35 -40 -26 -36 12
4 15 2 11 -9 -3 -8 -8 -12 -11 -9 -3 2 -12 -4 -20 -16 -8 -11 -11 -23 -7 -27
3 -3 10 0 14 7 5 7 13 11 18 8 5 -3 14 7 20 24 7 18 8 29 2 29 -6 0 -7 5 -3
11 5 8 10 6 16 -5 9 -15 33 -24 25 -8 -2 4 4 15 15 25 10 9 18 15 18 13 0 -2
14 9 30 24 17 15 30 32 30 37 0 4 -5 1 -11 -7 -9 -13 -10 -13 -6 0 2 8 10 14
17 12 7 -1 34 18 61 43 27 25 62 48 79 51 16 4 30 10 30 15 0 5 7 9 15 9 9 0
33 15 53 34 20 19 55 48 77 64 22 16 46 36 54 45 7 9 19 17 27 17 7 0 19 6 26
13 21 20 238 162 293 191 28 15 91 52 140 82 97 59 255 138 262 131 2 -3 -24
-19 -59 -37 -116 -59 -83 -50 73 21 85 38 168 76 184 83 111 51 364 108 388
88 7 -6 18 -8 23 -3 21 18 161 32 223 22 2 -1 -2 -8 -9 -16 -10 -12 -9 -15 8
-15 11 0 23 -7 26 -16 4 -9 9 -14 12 -12 3 3 -2 23 -11 43 -8 21 -14 39 -12
41 1 2 23 4 47 6 38 3 46 0 55 -19 5 -13 14 -23 20 -23 6 0 15 10 20 23 18 40
40 27 43 -25 2 -38 7 -48 20 -47 10 0 12 3 5 6 -8 3 -13 23 -13 49 l0 44 66 0
c52 0 64 -3 57 -12 -41 -54 -15 -78 84 -78 l76 0 -7 46 c-5 39 -4 45 10 40 9
-3 33 -6 55 -6 36 0 41 -3 55 -36 17 -41 30 -41 15 0 -9 23 -8 25 7 17 9 -5
36 -17 60 -26 23 -10 42 -23 42 -29 0 -7 3 -7 8 1 8 13 89 0 107 -18 11 -11
35 -12 35 -1 0 5 -9 18 -19 29 l-20 21 82 8 c72 6 78 8 49 16 -18 5 -30 13
-27 18 5 8 -38 19 -167 41 l-68 11 0 50 c0 42 2 49 18 44 60 -18 165 -37 178
-32 13 5 14 15 9 49 -4 23 -11 47 -16 53 -12 15 -72 5 -65 -11 6 -18 -19 -26
-33 -12 -9 9 -14 9 -20 -2 -6 -10 -20 -12 -47 -8 -58 9 -68 -2 -65 -68 2 -51
1 -56 -16 -51 -87 26 -486 35 -661 15 -72 -9 -97 -9 -100 0 -2 6 -10 11 -18
11 -8 0 -11 -6 -8 -15 4 -8 1 -15 -5 -15 -6 0 -12 10 -12 23 -1 13 -3 16 -5 7
-4 -12 -14 -15 -39 -12 -32 4 -33 6 -23 28 11 23 29 29 71 24 10 -1 34 4 55
11 59 19 66 49 12 49 -15 0 -31 6 -33 13 -4 8 -6 8 -6 0 -1 -8 -10 -8 -38 0
-39 12 -53 23 -53 45 0 18 59 15 67 -4 3 -8 12 -13 19 -10 8 3 14 1 14 -5 0
-6 5 -7 10 -4 13 8 13 75 0 75 -5 0 -6 -8 -3 -17z m-64 -10 c-7 -2 -21 -2 -30
0 -10 3 -4 5 12 5 17 0 24 -2 18 -5z m6 -217 c-2 -2 -26 -6 -54 -9 -34 -4 -42
-3 -25 3 25 8 87 13 79 6z m596 -64 c6 -4 18 -19 28 -34 l17 -28 -65 0 -65 0
0 35 c0 34 1 35 38 35 20 0 42 -4 47 -8z m306 -30 c-7 -2 -18 1 -23 6 -8 8 -4
9 13 5 13 -4 18 -8 10 -11z m79 -12 c0 -13 -11 -13 -30 0 -12 8 -11 10 8 10
12 0 22 -4 22 -10z m-1600 -134 c0 -2 -7 -7 -16 -10 -8 -3 -12 -2 -9 4 6 10
25 14 25 6z m-1069 -603 c13 -17 13 -17 -6 -3 -11 8 -22 16 -24 17 -2 2 0 3 6
3 6 0 17 -8 24 -17z m-143 -141 c15 12 16 11 3 -4 -7 -10 -18 -15 -23 -12 -5
3 -16 -3 -24 -15 -8 -12 -20 -21 -26 -21 -7 0 1 14 17 30 17 17 31 26 33 20 3
-7 9 -7 20 2z"/>
<path d="M7450 8372 c14 -9 39 -32 55 -50 22 -24 36 -31 49 -26 17 7 17 8 -5
25 -13 10 -19 19 -13 19 14 0 144 -119 144 -132 0 -6 -6 -5 -15 2 -10 8 -15 9
-15 2 0 -12 53 -63 105 -103 17 -13 39 -34 50 -46 11 -13 26 -23 33 -23 6 0
31 -20 55 -45 24 -25 48 -45 53 -45 5 0 15 -9 22 -20 7 -12 17 -18 22 -15 4 3
11 -3 13 -12 4 -16 5 -16 6 -1 0 9 -10 25 -24 36 -14 11 -25 24 -25 28 0 12
-55 64 -67 64 -5 0 -23 16 -40 35 -17 19 -35 35 -40 35 -5 0 -15 10 -23 21 -8
12 -23 30 -33 39 -10 10 -26 33 -35 51 -10 19 -51 60 -94 93 -65 49 -80 57
-93 46 -13 -10 -22 -8 -53 14 -21 14 -42 26 -48 25 -5 0 2 -8 16 -17z"/>
<path d="M4613 8323 c9 -2 23 -2 30 0 6 3 -1 5 -18 5 -16 0 -22 -2 -12 -5z"/>
<path d="M5520 8310 c0 -5 14 -10 32 -10 36 0 35 4 -4 14 -17 4 -28 2 -28 -4z"/>
<path d="M7562 8292 c-9 -6 -4 -16 18 -35 16 -15 30 -22 30 -16 0 5 5 7 10 4
6 -4 8 -11 5 -16 -4 -5 -1 -9 4 -9 21 0 11 28 -15 45 -15 9 -23 11 -19 4 5 -7
4 -10 -3 -5 -6 4 -9 13 -5 21 6 16 -5 19 -25 7z"/>
<path d="M4348 8213 c6 -2 18 -2 25 0 6 3 1 5 -13 5 -14 0 -19 -2 -12 -5z"/>
<path d="M4283 8203 c9 -2 25 -2 35 0 9 3 1 5 -18 5 -19 0 -27 -2 -17 -5z"/>
<path d="M2458 8183 c-9 -10 -14 -23 -11 -29 2 -7 -10 -18 -27 -25 -30 -14
-37 -24 -22 -33 11 -7 78 62 69 70 -4 4 -2 13 4 21 17 20 5 16 -13 -4z"/>
<path d="M5858 8163 c7 -3 16 -2 19 1 4 3 -2 6 -13 5 -11 0 -14 -3 -6 -6z"/>
<path d="M4930 8132 c0 -5 14 -9 31 -10 35 -1 31 10 -6 15 -14 2 -25 0 -25 -5z"/>
<path d="M7830 8120 c0 -5 5 -10 11 -10 5 0 7 5 4 10 -3 6 -8 10 -11 10 -2 0
-4 -4 -4 -10z"/>
<path d="M4941 8093 c0 -10 6 -47 13 -83 l12 -64 234 -3 c129 -1 250 -5 268
-8 35 -7 39 1 22 51 -5 16 -14 47 -19 70 l-11 40 -252 3 c-139 1 -256 5 -260
7 -4 3 -8 -3 -7 -13z m336 -99 c-3 -3 -12 -4 -19 -1 -8 3 -5 6 6 6 11 1 17 -2
13 -5z"/>
<path d="M5536 8095 c4 -11 14 -54 24 -95 l16 -74 70 -12 c96 -17 95 -17 90 9
-3 12 -8 39 -11 59 -4 25 -10 35 -19 32 -7 -3 -16 2 -19 10 -4 9 -17 16 -29
15 -23 0 -23 0 2 -11 43 -18 2 -22 -43 -4 -28 11 -50 28 -65 54 -13 20 -20 28
-16 17z"/>
<path d="M3645 8080 c-3 -5 -1 -10 4 -10 6 0 11 5 11 10 0 6 -2 10 -4 10 -3 0
-8 -4 -11 -10z"/>
<path d="M2345 8060 c3 -5 11 -10 16 -10 6 0 7 5 4 10 -3 6 -11 10 -16 10 -6
0 -7 -4 -4 -10z"/>
<path d="M6180 8048 c19 -7 37 -14 40 -17 5 -6 97 -51 105 -51 8 -1 129 -73
135 -80 6 -8 53 -34 102 -56 21 -9 36 -20 33 -24 -3 -5 3 -6 13 -3 10 2 24 -3
32 -12 11 -13 11 -15 -1 -12 -8 2 -4 -1 9 -7 12 -5 22 -13 22 -17 0 -4 15 -17
33 -29 l32 -22 -30 26 c-16 14 -27 26 -24 26 11 0 66 -45 67 -55 0 -5 6 -11
13 -14 8 -2 9 1 4 10 -5 8 -4 11 1 6 5 -5 9 -14 9 -20 0 -6 34 -34 76 -62 42
-27 98 -68 125 -90 78 -63 206 -175 243 -211 28 -29 36 -32 49 -22 13 11 15
10 9 -4 -6 -17 1 -16 42 10 3 1 -9 16 -25 33 l-29 32 27 -18 c15 -9 30 -25 33
-36 4 -10 13 -19 21 -19 8 0 14 -4 14 -9 0 -5 7 -11 15 -15 8 -3 15 -3 15 0 0
7 -196 201 -245 242 -21 18 -45 30 -53 27 -15 -5 -16 -5 -167 114 -157 123
-444 287 -481 275 -14 -4 -15 -3 -6 4 11 7 6 12 -20 22 -18 7 -43 14 -54 15
-25 1 -56 29 -46 40 4 4 -3 2 -15 -4 -24 -12 -69 1 -59 17 2 4 -3 8 -12 8 -9
0 -33 3 -52 7 l-35 6 35 -11z m951 -525 c12 -16 12 -17 -2 -6 -9 7 -19 10 -22
6 -4 -3 -7 -1 -7 5 0 17 16 15 31 -5z m79 -74 c0 -6 -4 -7 -10 -4 -5 3 -10 11
-10 16 0 6 5 7 10 4 6 -3 10 -11 10 -16z m50 -129 c0 -5 -2 -10 -4 -10 -3 0
-8 5 -11 10 -3 6 -1 10 4 10 6 0 11 -4 11 -10z"/>
<path d="M7910 8054 c0 -12 103 -104 109 -98 3 3 -13 21 -35 42 -56 52 -74 66
-74 56z"/>
<path d="M2305 8040 c-3 -5 -3 -10 2 -11 4 0 -2 -4 -14 -9 -13 -5 -23 -17 -23
-25 0 -9 -4 -14 -8 -11 -5 3 -18 -8 -30 -23 -17 -24 -18 -30 -7 -35 9 -3 12 0
9 8 -3 7 2 19 11 26 12 10 18 10 33 -1 15 -13 16 -12 3 4 -10 12 -10 17 -1 17
6 0 23 9 36 19 22 17 22 20 6 26 -16 7 -15 8 3 15 16 7 17 9 3 9 -9 1 -20 -3
-23 -9z"/>
<path d="M6045 7925 c28 -14 55 -25 60 -24 16 0 -78 48 -95 48 -8 0 8 -11 35
-24z"/>
<path d="M8030 7930 c0 -5 4 -10 9 -10 5 0 16 -17 24 -37 9 -21 16 -31 16 -23
1 11 4 11 13 2 10 -10 10 -15 0 -21 -11 -7 -11 -9 2 -14 8 -3 17 -1 20 6 2 7
5 4 5 -6 1 -11 16 -33 34 -50 17 -17 26 -27 18 -22 -10 5 -12 4 -7 -3 4 -7 13
-12 20 -12 7 0 18 -11 24 -24 13 -29 101 -146 121 -162 8 -7 11 -16 6 -24 -5
-8 -4 -11 3 -6 6 3 15 -6 20 -21 6 -16 11 -22 11 -15 1 6 5 12 10 12 10 0 37
-61 33 -75 -2 -5 0 -7 4 -3 4 5 16 -6 26 -23 11 -17 17 -34 14 -37 -3 -3 4
-10 16 -16 12 -6 23 -18 26 -26 3 -9 -2 -7 -12 5 -16 19 -16 18 -2 -10 8 -16
23 -39 33 -50 10 -11 27 -36 37 -55 23 -41 42 -61 49 -54 3 3 4 -3 4 -13 -1
-10 4 -17 10 -16 7 2 12 0 11 -5 -5 -16 53 -112 64 -106 6 4 8 3 4 -4 -3 -6
32 -85 79 -177 47 -91 104 -213 126 -270 22 -58 45 -107 50 -110 5 -4 9 -20 9
-36 0 -18 4 -28 10 -24 10 6 14 -13 10 -50 -1 -11 2 -17 6 -12 9 9 24 -33 48
-138 10 -44 22 -90 27 -101 4 -12 5 -33 2 -45 -4 -19 -3 -21 6 -9 6 9 11 10
11 3 0 -6 3 -20 6 -30 5 -15 4 -15 -5 -3 -7 9 -11 10 -11 3 0 -6 4 -14 9 -18
14 -8 40 -104 47 -172 4 -32 11 -65 16 -73 8 -12 8 -11 4 3 -4 11 -2 16 5 11
6 -3 9 -15 6 -25 -3 -11 -1 -16 5 -13 10 6 4 77 -9 97 -3 6 -8 27 -10 49 -1
21 -12 73 -24 116 -11 42 -31 118 -44 167 -25 95 -70 228 -130 385 -20 52 -41
107 -46 122 -14 36 -105 214 -162 315 -137 244 -326 523 -527 778 -54 68 -162
185 -171 185 -5 0 -9 -4 -9 -10z"/>
<path d="M2114 7853 c-33 -37 -75 -85 -95 -108 -47 -53 -216 -267 -260 -329
-61 -86 -69 -101 -64 -114 6 -17 -25 -57 -44 -57 -22 0 -38 -32 -23 -47 14
-14 47 0 47 20 0 6 6 17 13 24 6 6 12 16 12 21 0 4 12 24 26 43 14 18 24 40
21 49 -4 8 -1 17 5 21 7 5 8 2 3 -7 -4 -8 6 2 23 21 17 19 29 40 27 47 -2 7 1
15 7 19 7 5 8 2 3 -6 -6 -9 -4 -11 4 -6 7 5 10 15 7 23 -3 8 -2 12 3 9 5 -3
20 12 35 34 14 21 46 60 70 87 26 28 43 54 41 65 -3 11 2 18 12 18 9 0 14 3
10 6 -3 3 9 23 28 43 18 20 43 47 54 60 12 13 21 20 21 16 0 -5 6 0 14 10 8
11 12 23 10 26 -2 4 4 13 13 20 15 12 16 12 10 -4 -4 -11 -3 -16 4 -12 5 4 7
15 4 26 -5 13 -2 19 10 19 9 0 13 5 10 10 -3 6 -2 10 4 10 5 0 11 -6 14 -12 2
-7 8 -9 13 -5 8 7 -12 26 -27 27 -4 0 -33 -30 -65 -67z m-154 -218 c-7 -8 -17
-15 -23 -15 -6 0 -2 7 9 15 25 19 30 19 14 0z"/>
<path d="M8027 7897 c-3 -8 5 -25 16 -38 12 -14 18 -19 14 -12 -5 6 -6 17 -2
23 3 5 -1 10 -9 10 -10 0 -13 6 -10 15 4 8 4 15 1 15 -3 0 -7 -6 -10 -13z"/>
<path d="M3750 7889 c0 -5 5 -7 10 -4 6 3 10 8 10 11 0 2 -4 4 -10 4 -5 0 -10
-5 -10 -11z"/>
<path d="M6761 7866 c2 -2 15 -9 29 -15 24 -11 24 -11 6 3 -16 13 -49 24 -35
12z"/>
<path d="M6850 7816 c0 -2 7 -7 16 -10 8 -3 12 -2 9 4 -6 10 -25 14 -25 6z"/>
<path d="M5345 7755 c6 -2 60 -5 120 -8 61 -2 97 0 80 3 -29 7 -220 12 -200 5z"/>
<path d="M6960 7757 c0 -2 33 -29 73 -59 80 -60 97 -71 97 -65 0 3 -24 22 -52
43 -29 20 -68 48 -85 62 -18 13 -33 22 -33 19z"/>
<path d="M4290 7728 c-193 -86 -199 -89 -198 -119 1 -33 28 -41 28 -9 0 15 15
27 58 46 68 31 139 54 167 54 22 0 84 -32 131 -66 25 -20 27 -24 14 -39 -14
-17 -13 -17 18 -1 17 9 32 20 32 24 0 4 -22 29 -49 56 -31 31 -54 46 -62 41
-7 -5 -10 -4 -6 2 4 6 -12 13 -40 17 -57 8 -62 7 -93 -6z"/>
<path d="M3420 7680 c-9 -6 -10 -10 -3 -10 6 0 15 5 18 10 8 12 4 12 -15 0z"/>
<path d="M3352 7629 c-42 -31 -57 -48 -24 -29 23 13 78 60 71 60 -3 0 -24 -14
-47 -31z"/>
<path d="M5232 7620 c0 -14 2 -19 5 -12 2 6 2 18 0 25 -3 6 -5 1 -5 -13z"/>
<path d="M7000 7631 c0 -11 82 -73 88 -66 3 3 -7 14 -22 26 -14 11 -33 27 -40
35 -17 16 -26 18 -26 5z"/>
<path d="M7143 7622 c4 -6 22 -21 39 -34 17 -12 28 -17 25 -10 -4 6 -22 21
-39 34 -17 12 -28 17 -25 10z"/>
<path d="M3265 7564 c-18 -16 -22 -22 -9 -15 18 9 53 42 43 41 -2 -1 -17 -12
-34 -26z"/>
<path d="M6357 7569 c7 -7 15 -10 18 -7 3 3 -2 9 -12 12 -14 6 -15 5 -6 -5z"/>
<path d="M6420 7536 c0 -2 7 -7 16 -10 8 -3 12 -2 9 4 -6 10 -25 14 -25 6z"/>
<path d="M6471 7507 c2 -2 20 -14 39 -26 l35 -23 -30 26 c-16 14 -34 26 -39
26 -5 0 -7 -1 -5 -3z"/>
<path d="M3134 7472 c-11 -9 -35 -28 -53 -41 -18 -14 -64 -63 -102 -110 l-71
-86 64 68 c34 38 92 95 128 128 60 54 82 81 34 41z"/>
<path d="M2839 7383 l-24 -28 30 25 c17 14 32 26 34 28 2 1 0 2 -6 2 -5 0 -20
-12 -34 -27z"/>
<path d="M5518 7363 c6 -2 18 -2 25 0 6 3 1 5 -13 5 -14 0 -19 -2 -12 -5z"/>
<path d="M3669 7343 c-13 -16 -12 -17 4 -4 9 7 17 15 17 17 0 8 -8 3 -21 -13z"/>
<path d="M5578 7353 c6 -2 18 -2 25 0 6 3 1 5 -13 5 -14 0 -19 -2 -12 -5z"/>
<path d="M5700 7326 c222 -63 397 -154 585 -305 74 -59 151 -138 143 -146 -3
-3 -62 10 -132 29 -69 20 -160 38 -202 42 -68 6 -82 12 -162 62 -176 113 -410
174 -652 172 -131 -1 -274 -23 -355 -55 -34 -14 -65 -25 -68 -25 -4 0 -44 -18
-89 -40 -120 -58 -247 -154 -376 -282 -106 -106 -113 -115 -107 -145 5 -26 -1
-41 -35 -85 -88 -116 -119 -260 -85 -394 9 -38 23 -81 31 -95 11 -22 11 -29
-1 -45 -10 -14 -13 -15 -13 -4 1 8 0 28 0 44 -2 24 -4 27 -17 16 -8 -7 -15 -9
-15 -4 0 5 -8 -7 -18 -26 l-17 -34 -8 44 c-11 58 0 259 17 330 19 74 31 104
73 173 42 70 40 86 -3 19 -84 -132 -119 -273 -112 -462 3 -87 10 -128 26 -170
37 -93 12 -85 274 -83 128 2 331 6 450 9 l216 6 -11 25 c-8 18 -7 27 2 36 10
9 11 8 6 -8 -6 -18 -5 -18 7 -4 13 16 19 19 36 19 12 0 49 124 58 190 4 30 9
46 11 35 9 -43 15 -51 23 -30 6 14 9 6 9 -30 2 -103 72 -398 115 -484 14 -28
26 -53 26 -57 0 -4 -46 -4 -102 0 -141 9 -761 -16 -1108 -45 -125 -10 -341
-39 -435 -59 -27 -6 -126 -24 -220 -40 -93 -17 -222 -39 -285 -51 -89 -16
-121 -18 -140 -10 l-25 11 28 -5 c15 -3 27 -1 27 4 0 5 7 17 16 25 16 16 19
59 26 316 l3 125 -32 3 c-18 2 -33 7 -33 12 0 5 9 7 20 5 11 -2 20 0 20 5 0 4
12 13 28 19 22 9 18 10 -27 5 l-54 -6 7 68 c10 90 34 256 42 280 5 17 4 17 -5
2 -10 -15 -51 -254 -54 -315 -1 -19 -13 -24 -101 -42 -55 -12 -154 -40 -219
-61 -66 -22 -122 -40 -124 -40 -7 0 8 112 27 200 10 47 34 132 53 190 19 58
33 106 32 108 -7 8 -90 -231 -101 -293 -5 -26 -9 -34 -13 -23 -3 10 -6 -11 -6
-45 -1 -34 -4 -79 -8 -99 -7 -35 -11 -38 -40 -37 -32 0 -32 0 -7 11 21 9 22
12 7 15 -11 3 -16 11 -13 19 3 8 1 14 -4 14 -5 0 -12 11 -16 25 -3 14 -10 22
-15 19 -13 -8 -11 20 3 34 9 9 8 12 -5 12 -10 0 -20 -12 -25 -32 -10 -41 -42
-51 -42 -14 0 14 4 26 9 26 11 0 25 69 16 79 -4 3 -13 -3 -21 -13 -11 -16 -14
-17 -14 -4 0 11 -6 15 -20 11 -21 -6 -28 11 -9 22 5 4 8 12 6 18 -2 7 2 27 9
45 7 18 9 30 3 26 -14 -8 -6 40 10 60 7 9 10 16 5 16 -5 0 -2 5 6 10 13 9 13
10 0 10 -22 0 -53 -56 -45 -81 4 -13 3 -19 -3 -16 -13 9 -44 -103 -108 -395
l-17 -78 -58 0 -59 0 20 -20 c12 -12 25 -18 30 -15 6 4 10 1 10 -4 0 -6 9 -11
20 -11 11 0 20 -4 20 -9 0 -5 -16 -8 -35 -6 -19 1 -35 -2 -35 -7 0 -4 18 -8
40 -8 l40 0 0 -50 0 -50 -45 0 c-34 0 -45 -4 -45 -16 0 -12 9 -15 45 -11 50 4
60 -1 39 -21 -8 -7 -14 -9 -14 -4 0 4 -16 6 -35 4 -19 -2 -35 -8 -35 -13 0 -5
3 -8 8 -8 4 1 27 0 52 -1 37 -2 41 -3 20 -10 -14 -4 -37 -5 -52 -2 -16 2 -28
1 -29 -4 -2 -35 -12 -139 -13 -141 -3 -4 -277 -5 -281 -1 -2 2 -6 25 -8 51 -6
70 -19 72 -16 2 3 -54 1 -60 -18 -63 -16 -2 -21 4 -26 35 -4 21 -7 51 -7 67 0
52 -19 15 -22 -44 l-3 -55 -140 0 -140 0 -6 40 -6 40 -2 -37 c0 -20 -4 -43 -7
-52 -5 -13 -8 -13 -20 -1 -9 8 -14 37 -15 77 -1 50 -3 57 -9 33 -4 -16 -8 -47
-9 -67 -1 -27 -6 -38 -16 -38 -12 0 -15 14 -16 63 l-2 62 -8 -50 c-5 -27 -10
-56 -11 -62 -1 -9 -22 -13 -69 -13 -92 0 -99 4 -99 54 0 30 -3 37 -10 26 -5
-8 -10 -27 -10 -42 0 -19 -5 -26 -17 -24 -16 3 -18 14 -18 84 0 61 -3 82 -13
82 -7 0 -10 -5 -7 -10 3 -6 3 -19 0 -31 -5 -14 -13 -18 -28 -15 -12 3 -16 3
-9 0 17 -8 15 -22 -5 -27 -12 -3 -8 -5 9 -6 15 0 30 -5 33 -11 4 -6 -18 -10
-59 -10 -62 0 -66 -1 -65 -22 0 -13 3 -17 6 -10 3 8 26 12 64 12 52 0 59 -2
59 -20 0 -18 -7 -19 -109 -19 -92 0 -109 2 -104 15 4 11 -7 14 -57 14 -52 0
-61 -3 -56 -15 5 -14 -4 -15 -57 -13 -49 2 -62 6 -65 21 -3 15 5 17 57 17 53
0 61 2 61 19 0 17 -9 19 -95 20 -71 2 -96 -1 -100 -11 -10 -30 -13 -78 -4 -78
5 0 9 16 9 36 0 33 2 35 28 32 25 -3 27 -6 25 -44 -1 -38 1 -41 35 -54 21 -8
44 -16 52 -18 26 -6 142 -2 154 6 12 8 156 10 156 2 0 -3 19 -5 42 -5 23 0 43
-5 45 -12 3 -9 -60 -13 -274 -13 -242 -1 -299 -3 -335 -9 -15 -2 -8 -51 7 -51
8 0 15 -6 15 -14 0 -17 30 -24 134 -30 78 -5 101 -16 91 -43 -2 -7 -1 -15 4
-17 4 -3 89 -6 189 -7 126 -1 182 -5 182 -13 0 -6 4 -5 9 2 6 11 10 10 16 -5
7 -17 8 -17 15 2 8 19 9 19 9 -2 1 -19 8 -22 84 -27 45 -4 107 -6 138 -4 30 1
61 -2 67 -6 7 -4 19 -2 27 4 12 10 15 9 15 -3 0 -11 8 -15 30 -12 17 2 30 1
30 -3 0 -69 39 -282 52 -282 4 0 8 -7 8 -16 0 -8 4 -13 9 -10 5 3 12 -5 15
-19 4 -15 14 -25 24 -25 15 0 15 2 2 10 -13 9 -13 11 -1 19 13 8 13 12 1 26
-12 14 -12 18 0 25 18 11 29 4 40 -24 l9 -21 0 21 c1 31 55 28 59 -3 2 -13 -1
-23 -7 -23 -6 0 -11 -4 -11 -10 0 -19 19 -10 26 13 7 21 7 21 14 2 6 -16 9
-11 14 21 l7 42 82 7 c45 5 85 8 89 7 23 -5 166 -3 179 3 18 7 22 -6 69 -230
39 -186 52 -240 91 -372 74 -251 163 -455 278 -638 34 -53 61 -99 61 -101 0
-8 84 -118 122 -159 20 -22 62 -74 92 -115 31 -41 64 -86 73 -99 21 -28 25
-61 9 -61 -7 0 -54 42 -106 93 -68 66 -78 74 -35 27 108 -120 314 -318 394
-378 77 -58 270 -177 363 -223 26 -13 46 -29 44 -35 -3 -7 3 -10 12 -7 9 2 76
-21 147 -52 135 -59 368 -139 492 -171 40 -9 69 -22 66 -27 -3 -5 3 -7 13 -3
11 3 53 -4 94 -15 79 -22 103 -27 133 -28 11 -1 15 -5 11 -13 -5 -8 -2 -9 10
-5 10 4 48 2 85 -4 67 -11 69 -12 90 -56 12 -24 19 -49 16 -54 -4 -5 1 -9 9
-9 13 0 16 -15 18 -77 1 -65 1 -140 -1 -188 0 -5 2 -30 5 -54 5 -31 2 -46 -7
-52 -10 -6 -6 -9 12 -9 35 0 53 -24 54 -71 0 -38 2 -40 37 -46 l38 -6 0 -390
c0 -215 3 -394 7 -398 14 -14 235 -16 283 -3 25 7 41 12 36 13 -5 1 -3 8 4 16
7 8 11 15 9 16 -2 0 -17 2 -34 4 -28 4 -29 3 -11 -11 18 -12 5 -14 -113 -14
-73 0 -141 4 -151 10 -17 9 -18 22 -14 167 2 87 4 226 4 310 0 144 1 151 19
146 24 -6 36 -34 19 -44 -10 -6 -8 -12 7 -24 43 -34 52 -36 58 -13 5 18 11 20
39 14 18 -3 38 -13 44 -21 6 -8 14 -12 17 -8 4 3 7 2 7 -4 0 -5 7 -10 15 -10
10 0 16 11 17 31 1 19 4 9 8 -24 l7 -55 1 75 c0 41 -2 70 -4 64 -2 -6 -18 -8
-34 -6 -17 2 -36 0 -43 -6 -6 -5 -28 -13 -47 -16 -23 -5 -30 -4 -21 2 10 8 6
11 -17 16 -23 6 -29 11 -25 27 5 17 36 26 68 19 6 -1 36 -4 67 -5 l57 -3 4 41
c2 23 4 -54 5 -172 1 -118 4 -212 7 -210 2 3 5 98 6 212 0 114 4 207 9 207 4
0 5 12 2 26 -5 25 -3 25 42 21 l46 -4 0 68 c0 66 0 67 29 74 20 4 28 11 24 21
-3 8 0 14 7 14 6 0 8 5 4 12 -12 19 -12 48 0 48 7 0 7 3 -1 8 -9 6 -8 15 4 39
14 30 14 34 -2 50 -14 14 -16 28 -11 76 3 33 7 85 7 116 1 31 3 48 6 37 4 -17
6 -16 17 5 9 20 24 26 91 36 426 69 724 168 1075 358 160 87 274 167 493 348
86 71 111 87 118 76 5 -8 8 -24 6 -36 -3 -14 0 -20 10 -16 7 3 13 -1 13 -8 1
-21 30 21 30 43 0 13 -10 20 -30 25 -25 5 -29 9 -24 26 5 17 2 16 -22 -8 -42
-39 -248 -203 -326 -259 -37 -26 -72 -45 -78 -41 -5 3 -8 0 -5 -7 3 -8 -25
-31 -76 -61 -80 -49 -128 -64 -140 -45 -4 6 -12 7 -18 4 -21 -13 -11 -23 21
-21 28 2 29 1 13 -12 -23 -16 -32 -16 -40 -3 -4 6 -23 -6 -46 -30 -21 -22 -45
-40 -51 -40 -8 1 -5 7 6 15 10 8 16 21 13 29 -4 9 -1 13 6 11 7 -3 20 7 30 20
17 24 17 24 0 19 -12 -4 -10 1 7 15 14 11 32 18 42 15 21 -6 35 15 17 27 -10
6 -8 9 10 9 16 0 21 4 18 14 -6 14 21 32 31 21 3 -3 -1 -5 -9 -5 -11 0 -11 -2
1 -10 8 -5 24 -7 35 -4 18 4 18 4 2 -6 -9 -6 -21 -9 -25 -6 -5 3 -8 -8 -8 -24
0 -21 3 -27 15 -22 10 4 11 7 3 10 -25 8 -11 24 16 18 19 -5 23 -4 12 3 -12 9
-12 11 3 17 17 6 17 7 0 21 -17 14 -16 14 5 10 19 -5 22 -2 17 16 -5 16 -4 18
3 8 8 -11 15 -9 36 13 15 14 29 26 32 26 7 0 80 56 135 105 25 22 54 45 65 52
17 10 17 11 -6 6 l-25 -5 23 16 c12 10 27 14 34 10 7 -4 8 -3 4 5 -4 6 -2 19
5 27 10 13 10 17 -2 25 -10 6 -10 9 -1 10 6 1 17 3 22 4 6 1 15 3 21 4 5 0 7
5 4 11 -3 5 51 68 122 138 153 153 251 274 360 442 99 154 145 245 225 442 76
191 122 339 153 493 51 250 40 226 103 226 160 1 323 -2 346 -7 l29 -6 -6 -77
c-3 -44 -2 -68 3 -56 5 11 9 30 9 41 1 32 24 71 39 66 6 -2 12 -20 13 -40 l1
-37 13 30 c20 44 19 11 -6 -117 -11 -59 -19 -113 -17 -119 5 -14 60 248 59
278 -1 31 17 38 29 11 10 -22 10 -22 6 -1 -2 12 2 24 10 27 8 3 14 -5 16 -26
4 -39 38 -50 38 -13 0 13 5 36 10 51 6 15 13 66 15 113 l4 86 33 3 c80 6 100
12 88 28 -8 9 -9 14 -2 14 6 0 15 -7 19 -15 7 -12 33 -15 133 -15 132 0 193 4
209 14 6 4 13 -10 17 -30 4 -23 9 -31 14 -23 5 7 6 18 3 25 -2 6 0 15 6 19 6
3 14 -1 17 -10 6 -14 8 -14 21 2 13 17 14 16 8 -7 -16 -61 -17 -82 -4 -91 11
-7 15 4 19 54 l5 62 118 -3 c81 -2 117 1 112 8 -3 5 1 13 9 16 9 3 16 14 16
24 0 16 12 19 115 22 125 3 135 8 135 61 0 27 -1 27 -65 27 l-65 0 6 28 c4 15
10 36 15 48 7 19 4 21 -64 22 -40 1 -95 5 -124 8 -40 5 -51 3 -50 -7 2 -15 -4
-19 -28 -19 -10 0 -15 7 -13 18 2 13 -5 18 -37 20 -88 5 -125 13 -125 28 0 11
20 14 98 16 88 2 91 2 25 5 -58 3 -73 7 -73 19 0 9 -6 14 -12 11 -16 -5 -50
32 -41 46 3 6 1 7 -5 3 -7 -4 -12 -2 -12 3 0 6 -4 11 -8 11 -5 0 -7 -14 -4
-30 2 -17 1 -55 -3 -85 -6 -53 -7 -54 -32 -44 -17 6 -30 6 -38 -1 -7 -6 -21
-7 -30 -3 -15 5 -17 3 -12 -11 6 -14 0 -16 -50 -15 -42 2 -57 6 -60 19 -5 20
-43 24 -43 4 0 -10 -14 -14 -54 -14 l-54 0 -10 73 c-8 62 -10 66 -11 27 l-2
-45 -19 24 c-11 13 -20 36 -20 52 0 16 -5 29 -11 29 -6 0 -8 -9 -4 -21 4 -11
4 -35 1 -53 -5 -28 -10 -32 -35 -30 -16 1 -38 5 -50 9 -12 4 -28 2 -36 -5 -9
-7 -15 -8 -20 0 -3 5 -17 10 -31 10 -18 0 -24 5 -24 22 0 19 -2 20 -12 7 -7
-8 -30 -21 -52 -28 -32 -11 -40 -11 -47 0 -8 12 -11 11 -19 -1 -6 -10 -10 -11
-10 -2 0 19 -20 14 -21 -5 0 -15 -2 -15 -9 2 -5 11 -9 14 -9 8 -1 -7 -5 -13
-10 -13 -11 0 -16 16 -26 74 l-6 38 105 -7 c92 -6 106 -5 106 8 0 9 -5 19 -10
22 -8 5 -7 12 2 22 19 23 12 194 -8 209 -11 9 0 10 46 7 l60 -5 -6 48 c-3 27
-10 65 -15 84 -12 49 -13 48 22 66 25 12 29 18 18 25 -12 7 -12 9 0 9 10 0 11
3 2 13 -6 8 -8 17 -4 20 3 4 0 7 -8 7 -12 0 -12 2 0 9 21 14 3 31 -33 31 -36
0 -62 -20 -47 -36 9 -8 15 -46 12 -69 -1 -5 -6 -3 -11 5 -8 12 -10 11 -10 -7
0 -12 5 -25 10 -28 6 -4 7 -11 4 -17 -4 -6 -2 -8 3 -5 10 6 30 -60 21 -68 -2
-1 -33 -5 -71 -7 l-67 -4 -9 36 c-80 318 -171 576 -281 800 -51 104 -166 298
-226 382 -17 24 -77 107 -133 185 -56 78 -106 145 -111 148 -12 8 194 -292
210 -305 4 -3 15 -21 26 -40 10 -19 31 -51 45 -70 24 -32 76 -121 139 -238 14
-26 41 -81 59 -122 19 -41 42 -93 52 -115 10 -22 39 -98 64 -170 101 -284 141
-418 147 -492 1 -17 5 -30 9 -27 4 2 10 -8 14 -23 5 -21 1 -31 -21 -50 -15
-13 -24 -26 -20 -30 3 -4 12 -1 18 5 7 7 15 12 18 12 11 0 11 -90 0 -110 -9
-16 -8 -19 7 -14 10 3 7 -2 -7 -10 -14 -8 -21 -15 -16 -16 5 0 3 -7 -4 -15
-14 -17 -95 -21 -105 -5 -4 6 15 10 51 10 32 0 55 2 53 5 -3 2 -77 6 -164 8
-89 2 -140 0 -115 -4 25 -4 71 -8 103 -8 38 -1 56 -5 52 -11 -4 -6 -2 -17 5
-25 6 -7 10 -29 8 -47 l-3 -33 -114 2 c-80 1 -117 6 -123 15 -6 8 -8 -2 -4
-29 4 -24 2 -44 -4 -48 -5 -3 -10 -18 -11 -33 l-1 -27 -8 25 c-13 39 -11 88 3
93 6 3 -9 6 -35 6 l-48 1 0 45 c0 38 4 46 28 59 l27 15 -32 1 c-30 0 -33 3
-34 33 -2 71 -6 87 -27 110 -12 13 -20 26 -16 29 3 4 0 16 -6 28 -8 15 -17 19
-31 15 -11 -4 -30 1 -47 13 -53 38 -109 60 -266 107 -111 34 -160 44 -165 37
-5 -8 -17 -9 -39 -3 -19 6 -34 6 -37 0 -4 -5 2 -9 12 -10 10 0 38 -9 63 -20
51 -22 47 -22 -140 27 -145 37 -167 46 -162 64 1 6 -2 9 -8 5 -5 -3 -10 -14
-10 -23 0 -33 -41 -176 -51 -183 -7 -4 -8 -12 -5 -18 4 -6 3 -11 -3 -11 -6 0
-18 -16 -27 -35 -9 -19 -21 -32 -26 -29 -6 4 -8 -2 -3 -15 5 -16 3 -20 -9 -15
-12 5 -15 2 -10 -12 5 -18 5 -18 -6 -1 -9 14 -9 22 -1 30 18 18 13 31 -6 16
-9 -8 -14 -9 -12 -4 74 140 106 261 112 421 6 151 -7 319 -33 404 -27 92 -96
241 -147 318 -55 82 -175 199 -274 263 -46 31 -100 76 -119 100 -45 59 -158
155 -250 214 -149 96 -382 192 -505 210 -22 3 -2 -6 45 -19z m-191 -206 c138
-23 248 -57 331 -102 99 -55 131 -69 173 -78 l42 -9 -42 2 c-23 1 -39 -1 -37
-5 2 -3 49 -10 103 -13 97 -7 100 -8 106 -34 3 -14 8 -34 11 -43 5 -17 -3 -17
-99 -12 -78 5 -106 4 -112 -6 -6 -9 7 -12 56 -9 35 1 89 1 119 -1 33 -2 -1 -6
-85 -10 -112 -6 -154 -13 -212 -33 -214 -76 -338 -196 -414 -400 -17 -47 -19
-48 -15 -16 2 20 14 57 25 82 12 25 21 51 21 56 0 6 5 11 11 11 5 0 7 5 3 12
-4 7 -3 8 4 4 8 -5 12 0 12 13 0 11 7 26 15 34 8 8 11 18 7 22 -4 4 0 5 8 3 9
-2 14 3 12 11 -2 9 3 11 13 7 10 -4 14 -2 9 5 -10 17 62 78 143 121 40 21 73
36 73 34 0 -3 24 3 53 13 28 10 69 21 90 25 20 4 37 11 37 15 0 21 -23 71 -33
71 -23 0 -176 -54 -171 -61 2 -4 -8 -10 -24 -14 -81 -20 -220 -144 -289 -260
-26 -43 -52 -108 -69 -170 -24 -88 -28 -117 -27 -240 0 -179 24 -286 98 -442
63 -133 105 -198 177 -274 115 -122 224 -191 365 -231 105 -29 297 -31 393 -4
166 48 320 159 392 282 163 279 170 605 21 909 -8 17 -16 38 -18 47 -2 10 -9
23 -14 30 -6 7 -29 37 -51 65 -75 98 -238 211 -369 257 -51 19 -54 7 -3 -16
20 -10 28 -15 17 -11 -11 3 -48 13 -82 22 -64 16 -85 31 -35 25 l27 -4 -27 10
c-16 7 -29 22 -33 38 -3 15 -8 35 -11 44 -4 15 1 15 58 -3 35 -10 76 -19 91
-19 19 0 26 -4 21 -12 -5 -8 -2 -9 10 -5 41 16 205 -92 307 -201 217 -234 306
-564 248 -917 -25 -149 -89 -288 -177 -380 -99 -104 -179 -157 -308 -202 -74
-26 -90 -27 -244 -28 -183 0 -234 11 -376 79 -133 64 -328 200 -369 259 -10
15 -15 17 -16 7 0 -13 -1 -13 -6 0 -3 8 -18 31 -33 50 -27 36 -71 126 -108
220 -74 190 -100 368 -81 550 24 228 89 371 229 503 69 65 76 73 34 44 -159
-114 -268 -304 -310 -542 -7 -44 -18 -89 -23 -100 -5 -11 -13 -38 -17 -60 -3
-22 -8 -35 -11 -29 -2 7 -13 10 -23 7 -14 -4 -23 2 -31 21 -7 16 -18 25 -26
22 -7 -3 -13 0 -14 7 0 7 -4 3 -9 -8 -6 -15 -9 -6 -9 33 -1 29 3 51 7 48 14
-8 -17 195 -37 237 -48 109 -163 188 -300 207 -89 12 -154 5 -241 -26 -59 -22
-63 -22 -40 -4 14 11 43 24 65 29 28 6 33 9 15 10 -14 0 -52 -6 -85 -14 -85
-20 -86 -20 -25 35 55 49 55 49 76 30 41 -40 59 -18 23 28 l-21 27 25 20 c156
130 219 173 354 239 64 32 184 69 258 79 91 12 308 6 424 -13z m654 -197 c-7
-2 -21 -2 -30 0 -10 3 -4 5 12 5 17 0 24 -2 18 -5z m-293 -108 c0 -12 -19 -12
-23 0 -4 9 -1 12 9 8 7 -3 14 -7 14 -8z m-1170 -156 c102 -16 184 -64 233
-134 l20 -30 -34 30 c-32 28 -32 27 3 -7 38 -39 68 -107 68 -157 0 -27 -2 -28
-57 -30 -55 -2 -71 -6 -62 -15 2 -3 30 -6 62 -7 57 -2 57 -3 57 -33 0 -31 -1
-31 -45 -28 -26 3 -52 -1 -60 -8 -12 -10 -15 -10 -15 1 -1 8 -7 1 -14 -16 -11
-27 -12 -22 -15 60 -3 104 -11 129 -11 34 0 -39 -5 -73 -14 -84 -12 -17 -13
-16 -20 10 -4 16 -15 40 -25 54 -15 21 -19 50 -20 156 -2 71 -4 132 -7 134 -2
2 -4 -54 -4 -126 0 -128 -1 -131 -21 -126 -16 4 -18 8 -7 14 8 5 -1 6 -21 2
-23 -4 -32 -3 -28 4 5 8 -12 9 -51 6 l-59 -5 -2 68 c-3 86 -11 97 -12 18 -2
-119 -17 -111 -19 11 l-3 120 -8 -118 c-6 -85 -12 -122 -23 -133 -15 -14 -16
-13 -16 13 0 16 -10 46 -21 68 -26 49 -117 147 -122 132 -2 -6 15 -25 37 -42
53 -40 86 -98 86 -153 0 -40 -1 -43 -22 -36 -13 4 -31 7 -40 6 -10 0 -18 3
-18 8 0 5 -16 12 -36 16 l-37 7 6 60 c3 32 10 64 16 70 16 16 14 32 -2 18 -15
-12 -32 -63 -42 -128 -4 -24 -8 -43 -10 -43 -21 0 -55 23 -55 37 0 51 112 202
165 223 19 7 32 17 29 22 -3 4 6 8 20 8 14 0 29 7 34 16 6 10 35 22 73 29 82
17 92 17 169 4z m1405 -5 c-172 -20 -226 -36 -315 -92 -39 -25 -49 -28 -36
-13 11 12 42 34 70 50 74 41 149 58 261 58 28 0 37 -2 20 -3z m166 -68 c38
-13 92 -38 119 -56 57 -37 158 -142 141 -148 -6 -2 -40 23 -76 56 -80 75 -170
121 -267 135 -103 15 -139 5 -190 -49 -51 -55 -65 -79 -93 -162 -11 -35 -24
-63 -29 -62 -5 1 -12 -4 -16 -10 -4 -7 -21 -13 -38 -14 -17 -1 -29 1 -27 5 3
3 -4 14 -15 24 -12 10 -20 13 -20 7 0 -7 -5 -12 -11 -12 -6 0 -8 9 -4 23 4 15
3 18 -3 9 -7 -11 -14 -7 -30 15 -11 15 -24 25 -28 20 -4 -4 2 -17 14 -30 12
-13 22 -27 22 -31 0 -4 -11 6 -26 23 -24 29 -24 31 -8 56 23 35 11 42 -15 9
-11 -15 -21 -23 -21 -18 0 17 -43 -61 -61 -111 -10 -27 -18 -41 -19 -31 0 11
17 53 38 95 46 95 152 206 232 244 109 52 302 58 431 13z m-59 -180 c15 -3 36
-20 48 -36 19 -27 20 -35 10 -60 -7 -16 -27 -36 -46 -45 -45 -21 -87 -8 -135
41 -32 33 -33 36 -18 62 15 27 71 54 99 47 8 -2 27 -6 42 -9z m319 -53 c13
-17 13 -17 -6 -3 -11 8 -22 16 -24 17 -2 2 0 3 6 3 6 0 17 -8 24 -17z m-2301
-45 c0 -6 -6 -5 -15 2 -8 7 -15 14 -15 16 0 2 7 1 15 -2 8 -4 15 -11 15 -16z
m1197 -30 c-3 -8 -6 -5 -6 6 -1 11 2 17 5 13 3 -3 4 -12 1 -19z m-241 -54 c-4
-14 -9 -24 -12 -21 -3 2 -2 17 2 31 3 15 9 25 11 22 3 -3 2 -17 -1 -32z m231
-16 c-3 -7 -5 -2 -5 12 0 14 2 19 5 13 2 -7 2 -19 0 -25z m-440 -10 c-3 -8 -6
-5 -6 6 -1 11 2 17 5 13 3 -3 4 -12 1 -19z m588 -135 c0 -71 3 -157 7 -193 4
-41 4 -57 -2 -43 -15 38 -32 226 -25 282 6 47 14 81 19 81 0 0 1 -57 1 -127z
m-1291 -18 c-4 -10 1 -12 18 -9 20 5 21 4 5 -6 -21 -14 -37 -5 -37 21 0 11 4
18 10 14 5 -3 7 -12 4 -20z m-124 -37 c-19 -21 -21 -21 -14 -3 11 30 28 49 32
36 2 -5 -6 -21 -18 -33z m-1793 10 c-3 -8 -6 -5 -6 6 -1 11 2 17 5 13 3 -3 4
-12 1 -19z m1874 -15 c13 -16 12 -17 -3 -4 -10 7 -18 15 -18 17 0 8 8 3 21
-13z m584 -71 c-3 -3 -11 0 -18 7 -9 10 -8 11 6 5 10 -3 15 -9 12 -12z m195
-34 c0 -10 -4 -18 -10 -18 -5 0 -10 7 -10 15 0 8 -5 15 -10 15 -6 0 -5 6 2 14
15 16 28 3 28 -26z m-662 -25 c-10 -2 -28 -2 -40 0 -13 2 -5 4 17 4 22 1 32
-1 23 -4z m1412 -69 c70 -141 205 -245 355 -277 57 -12 63 -16 33 -16 -42 -1
-169 37 -180 53 -5 7 -11 7 -20 -2 -9 -9 -9 -12 2 -12 7 0 10 -3 7 -6 -10 -11
-36 16 -31 31 6 15 -29 38 -41 27 -5 -4 -4 -1 0 7 6 11 4 13 -9 8 -11 -5 -15
-3 -10 5 5 7 2 9 -9 5 -10 -4 -18 1 -22 14 -4 10 -12 19 -20 19 -7 0 -16 7
-19 16 -3 8 -11 12 -17 8 -7 -4 -9 -3 -6 3 4 6 -3 13 -16 17 -18 5 -19 8 -7
15 13 9 13 10 0 15 -24 7 -59 8 -107 2 -36 -4 -42 4 -18 24 12 10 15 10 15 -4
0 -9 2 -16 5 -16 14 0 55 25 59 37 3 8 2 12 -3 9 -5 -3 -11 1 -15 9 -8 21 -67
-6 -78 -36 -7 -19 -11 -21 -18 -9 -13 20 -13 33 0 25 5 -3 7 0 5 8 -3 7 2 20
12 29 22 19 94 57 109 58 6 0 26 -30 44 -66z m-236 -38 c-10 -8 -21 -12 -24
-10 -5 6 21 24 34 24 6 0 1 -6 -10 -14z m-2447 -63 c-2 -16 -4 -5 -4 22 0 28
2 40 4 28 2 -13 2 -35 0 -50z m-552 39 c-3 -3 -11 0 -18 7 -9 10 -8 11 6 5 10
-3 15 -9 12 -12z m6043 -14 c14 -14 16 -48 3 -48 -5 0 -17 -7 -25 -16 -9 -8
-16 -11 -16 -5 0 5 4 12 8 15 5 3 7 19 4 36 -4 31 6 38 26 18z m-1427 -157 c1
-31 2 -60 4 -66 1 -5 3 -76 3 -157 l2 -146 88 -21 c48 -12 97 -24 110 -27 l22
-6 -5 206 c-4 141 -3 206 4 206 6 0 12 -15 12 -32 1 -18 4 -116 8 -219 l6
-185 -32 0 c-17 0 -30 2 -28 6 2 3 -7 5 -18 6 -48 1 -303 66 -317 80 -13 13
-10 14 31 9 25 -3 59 -9 77 -14 20 -6 32 -6 32 0 0 5 -7 9 -15 9 -8 0 -15 1
-16 3 0 1 -3 95 -6 209 l-6 207 22 -6 c18 -5 21 -13 22 -62z m279 59 c13 -9
13 -10 0 -9 -8 1 -26 5 -40 9 l-25 8 25 1 c14 0 32 -4 40 -9z m-890 -14 c0 -2
-8 -10 -17 -17 -16 -13 -17 -12 -4 4 13 16 21 21 21 13z m-4083 -28 c-3 -8 -6
-5 -6 6 -1 11 2 17 5 13 3 -3 4 -12 1 -19z m4987 3 c4 -5 -3 -7 -14 -4 -23 6
-26 13 -6 13 8 0 17 -4 20 -9z m91 -32 c5 -5 -6 -4 -25 2 -45 15 -54 24 -15
15 17 -4 34 -12 40 -17z m-1070 1 c-3 -5 -11 -10 -16 -10 -6 0 -7 5 -4 10 3 6
11 10 16 10 6 0 7 -4 4 -10z m-3368 -32 c-3 -8 -6 -5 -6 6 -1 11 2 17 5 13 3
-3 4 -12 1 -19z m3303 5 c-19 -8 -59 -17 -90 -19 l-55 -3 50 9 c28 5 64 13 80
19 46 14 54 11 15 -6z m1110 -33 c12 0 15 -7 12 -28 -3 -24 -8 -28 -28 -24
-20 4 -24 10 -24 40 0 28 3 33 12 24 7 -7 19 -12 28 -12z m925 10 c3 -5 1 -10
-4 -10 -6 0 -11 5 -11 10 0 6 2 10 4 10 3 0 8 -4 11 -10z m-1718 -37 c-8 -7
-37 9 -31 19 3 5 12 4 20 -3 8 -6 13 -14 11 -16z m-1441 1 l60 -6 57 -87 c32
-48 70 -100 86 -115 16 -16 27 -34 25 -40 -7 -18 201 -227 271 -274 135 -89
319 -152 443 -152 84 0 262 19 277 29 6 4 30 14 55 21 44 14 108 45 180 88 64
39 143 73 155 68 7 -2 16 3 19 12 7 21 39 77 56 97 15 18 10 19 225 -32 82
-20 163 -44 180 -53 16 -9 73 -31 126 -49 122 -40 131 -47 123 -88 -6 -28 -8
-30 -21 -18 -14 14 -48 14 -120 -1 -17 -3 -23 0 -23 13 0 15 -2 16 -10 3 -9
-13 -11 -13 -20 0 -13 20 -13 30 1 30 8 0 8 5 -1 15 -7 8 -10 21 -7 28 3 8 1
20 -4 28 -6 9 -9 -3 -9 -36 0 -62 -24 -231 -46 -328 -38 -170 -107 -358 -180
-494 -21 -37 -49 -90 -62 -116 -15 -29 -30 -46 -38 -43 -9 3 -11 -1 -7 -12 6
-15 5 -15 -10 -3 -9 7 -17 10 -17 6 0 -4 -7 -2 -15 5 -11 9 -15 9 -15 1 0 -6
10 -16 23 -21 12 -5 17 -9 10 -9 -20 -1 -63 21 -57 30 3 5 -2 9 -11 9 -9 0
-13 -5 -9 -11 3 -6 -7 -4 -22 4 -16 9 -40 34 -54 56 -14 23 -28 41 -33 41 -4
0 -1 -11 8 -24 16 -24 11 -61 -7 -50 -9 6 -48 -23 -48 -36 0 -4 6 -7 14 -7 8
0 12 6 8 15 -4 11 -1 14 12 9 9 -4 15 -3 12 1 -3 5 1 9 9 9 8 0 15 -2 15 -4 0
-9 -75 -68 -83 -65 -4 1 -6 -2 -3 -7 4 -5 -7 -22 -22 -38 -16 -15 -27 -33 -25
-40 5 -13 -32 -90 -53 -111 -8 -7 -14 -20 -14 -29 0 -9 -6 -13 -15 -9 -8 3
-15 1 -15 -5 0 -5 -12 -7 -27 -4 -26 6 -27 5 -10 -8 24 -20 5 -32 -44 -28 -31
2 -37 -1 -42 -21 -5 -18 -9 -20 -19 -10 -16 16 -31 15 -25 -2 4 -10 0 -12 -14
-9 -11 3 -19 0 -19 -7 0 -7 -8 -10 -20 -7 -12 3 -20 0 -20 -8 0 -14 -64 -30
-80 -20 -6 3 -24 -2 -40 -12 -24 -14 -33 -15 -39 -5 -8 14 -119 14 -128 -1 -2
-4 -11 -3 -18 3 -9 8 -17 7 -28 -5 -9 -8 -22 -12 -30 -9 -8 3 -18 1 -22 -5 -3
-6 -27 -11 -52 -11 -39 0 -44 3 -39 18 5 15 4 15 -6 2 -8 -9 -28 -14 -50 -13
-34 1 -38 -2 -38 -24 0 -13 -4 -21 -10 -18 -5 3 -10 1 -10 -4 0 -6 -4 -11 -10
-11 -6 0 -11 65 -11 173 l-2 172 -8 -145 c-5 -79 -11 -150 -13 -157 -3 -7 -16
-12 -28 -10 -15 1 -22 -3 -20 -11 2 -10 -8 -12 -45 -6 -61 10 -101 8 -119 -7
-7 -6 -18 -8 -24 -4 -6 4 -2 13 11 24 15 12 18 20 11 25 -6 4 -21 -5 -33 -19
-21 -23 -24 -24 -40 -9 -14 12 -29 14 -76 9 -32 -4 -64 -12 -70 -17 -9 -7 -18
-6 -28 2 -13 11 -20 11 -40 0 -21 -11 -27 -11 -44 4 -13 12 -20 13 -23 5 -2
-6 -26 -12 -57 -12 -40 -1 -55 3 -63 16 -11 21 -41 22 -58 2 -7 -8 -20 -15
-30 -15 -10 0 -20 7 -24 15 -6 17 -42 20 -52 4 -3 -6 -16 -8 -28 -5 -11 2 -65
6 -119 7 -54 2 -101 7 -103 11 -3 5 -12 4 -19 -2 -18 -15 -25 27 -34 197 -3
78 -10 145 -15 150 -5 4 -7 -71 -5 -167 l4 -174 -35 -3 c-19 -1 -50 -4 -67 -7
-32 -5 -46 7 -20 17 7 4 6 6 -4 6 -9 1 -22 -6 -29 -14 -7 -8 -19 -15 -26 -15
-8 0 -14 -4 -14 -10 0 -5 -9 -10 -20 -10 -11 0 -20 5 -20 10 0 6 7 10 15 10 8
0 15 6 15 14 0 25 -18 27 -33 6 -11 -15 -16 -17 -20 -8 -3 9 -22 13 -53 13
-28 0 -55 6 -63 13 -11 11 -16 11 -21 1 -5 -7 -7 6 -6 28 1 26 -2 39 -9 37 -7
-3 -11 10 -11 33 0 20 -5 38 -12 41 -10 3 -10 7 -2 17 14 16 3 80 -15 95 -10
9 -16 7 -24 -9 -8 -14 -8 -21 2 -24 6 -3 2 -6 -10 -6 -16 -1 -20 -6 -16 -21 3
-12 0 -20 -7 -20 -7 0 -10 -7 -6 -15 3 -8 1 -15 -4 -15 -6 0 -10 9 -10 21 0
12 -4 17 -11 13 -6 -3 -9 -14 -6 -24 7 -29 -34 -35 -56 -8 -14 17 -20 19 -27
9 -4 -8 -18 -12 -33 -9 -18 4 -24 1 -20 -9 4 -10 0 -11 -18 -3 -13 6 -32 13
-41 16 -10 4 -18 16 -18 27 0 19 -1 19 -12 4 -8 -10 -27 -17 -48 -17 -50 -1
-110 11 -110 21 0 5 -20 14 -45 20 -45 11 -56 22 -32 33 12 6 -2 4 -53 -8 -22
-5 -21 -4 5 10 l30 15 -27 -6 c-23 -4 -26 -2 -21 12 4 11 3 14 -6 9 -17 -11
-71 13 -71 31 0 10 -6 12 -21 8 -14 -5 -19 -4 -15 4 5 7 1 8 -10 4 -12 -5 -15
-3 -9 6 6 11 3 11 -16 1 -13 -7 -27 -18 -31 -24 -4 -6 -8 2 -8 18 0 16 3 26 7
23 3 -4 17 0 30 9 23 14 26 14 61 -16 20 -17 44 -37 53 -45 15 -15 49 -11 49
5 0 4 12 6 28 3 21 -2 19 0 -11 11 -21 9 -51 25 -68 37 -26 18 -44 26 -72 28
-5 1 -5 6 -1 13 4 6 3 8 -3 5 -6 -4 -22 8 -37 25 -30 37 -36 23 -6 -15 18 -22
18 -26 4 -38 -13 -10 -16 -9 -21 11 -6 23 -7 23 -15 4 -5 -13 -7 -6 -3 21 2
22 2 33 -2 25 -3 -8 -12 -20 -19 -28 -11 -10 -15 -5 -24 30 -19 74 -42 128
-72 170 -65 88 -180 354 -242 558 -55 178 -64 219 -81 371 -14 117 -14 143 -3
150 24 15 181 48 403 84 121 19 256 42 300 50 74 14 302 40 405 47 l45 3 0
-110 0 -110 -135 -17 c-74 -9 -138 -17 -142 -17 -15 -2 -8 -108 12 -185 28
-105 85 -232 155 -346 74 -120 240 -290 330 -336 122 -63 291 -91 580 -96
l150 -2 3 652 2 652 104 0 c57 0 130 -3 162 -6z m-295 -134 c-4 -99 -20 -154
-47 -159 -28 -5 -44 -21 -44 -45 0 -15 -3 -17 -9 -8 -10 16 -56 12 -56 -5 0
-22 -13 -24 -20 -3 -4 13 -12 19 -21 16 -7 -3 -16 -1 -19 4 -10 15 -25 12 -25
-6 0 -14 -2 -14 -15 0 -9 8 -14 21 -13 28 4 15 -60 27 -85 16 -12 -6 -19 -4
-23 6 -3 8 -14 18 -25 21 -10 4 -19 15 -19 26 0 10 -9 42 -20 71 -24 64 -24
58 -2 59 12 0 10 3 -7 10 -14 5 -31 7 -38 5 -7 -3 -13 1 -13 9 0 9 17 16 53
20 91 10 309 23 382 21 l70 -1 -4 -85z m1653 63 c-20 -15 -34 -17 -34 -5 0 16
23 30 38 25 13 -5 12 -8 -4 -20z m853 -75 c-2 -18 -4 -4 -4 32 0 36 2 50 4 33
2 -18 2 -48 0 -65z m982 75 c-1 -10 -4 -29 -8 -43 l-7 -25 -8 23 c-4 13 -3 28
3 36 6 7 8 16 4 19 -3 4 -1 7 5 7 7 0 12 -8 11 -17z m-4024 -122 c0 -66 -3
-122 -6 -126 -4 -3 -10 45 -14 107 -4 62 -12 119 -17 126 -8 9 -4 12 13 12 24
0 24 0 24 -119z m2433 89 c-1 -17 -5 -27 -9 -23 -7 7 -2 53 6 53 2 0 3 -14 3
-30z m-2512 4 c-3 -9 -6 -86 -7 -172 -1 -94 -4 -147 -9 -132 -4 14 -8 91 -9
173 -1 129 1 147 15 147 11 0 14 -5 10 -16z m29 -4 c3 -5 1 -10 -4 -10 -6 0
-11 5 -11 10 0 6 2 10 4 10 3 0 8 -4 11 -10z m2115 -5 c-7 -8 -17 -15 -22 -15
-6 0 -5 7 2 15 7 8 17 15 22 15 6 0 5 -7 -2 -15z m-2023 -42 c-3 -10 -5 -4 -5
12 0 17 2 24 5 18 2 -7 2 -21 0 -30z m-1551 7 c-32 -10 -77 -21 -100 -24 -25
-4 -10 3 39 18 95 28 146 33 61 6z m-149 -36 c-3 -3 -12 -4 -19 -1 -8 3 -5 6
6 6 11 1 17 -2 13 -5z m4700 -61 c-3 -10 -5 -2 -5 17 0 19 2 27 5 18 2 -10 2
-26 0 -35z m946 0 c-18 -2 -48 -2 -65 0 -18 2 -4 4 32 4 36 0 50 -2 33 -4z
m-5556 -100 c-3 -10 -5 -2 -5 17 0 19 2 27 5 18 2 -10 2 -26 0 -35z m6300 15
c-3 -7 -5 -2 -5 12 0 14 2 19 5 13 2 -7 2 -19 0 -25z m-914 -21 c3 -7 -1 -21
-9 -31 -12 -17 -20 -18 -86 -9 l-73 11 73 -1 c39 0 75 3 79 6 3 4 -7 7 -23 7
-28 1 -28 1 -10 15 24 18 42 19 49 2z m-84 -6 c10 -6 -1 -8 -30 -4 -24 3 -46
7 -48 9 -10 9 65 3 78 -5z m1161 -66 c0 -12 -15 -15 -75 -15 -60 0 -75 3 -75
15 0 12 15 15 75 15 60 0 75 -3 75 -15z m-6740 -9 c0 -3 -4 -8 -10 -11 -5 -3
-10 -1 -10 4 0 6 5 11 10 11 6 0 10 -2 10 -4z m1760 -30 c0 -35 -17 -76 -32
-76 -9 0 -9 3 0 12 7 7 12 29 12 50 0 21 5 38 10 38 6 0 10 -11 10 -24z m4737
18 c-3 -3 -12 -4 -19 -1 -8 3 -5 6 6 6 11 1 17 -2 13 -5z m236 -61 c-7 -2 -21
-2 -30 0 -10 3 -4 5 12 5 17 0 24 -2 18 -5z m-1599 -101 c-12 -11 -14 -29 -9
-81 3 -36 8 -74 11 -83 3 -10 -1 -28 -8 -40 -6 -13 -13 -38 -15 -56 -1 -20
-11 -42 -24 -53 -20 -17 -24 -18 -39 -4 -21 19 -30 10 -30 -27 0 -17 -4 -27
-10 -23 -10 6 -14 -7 -11 -33 1 -8 -5 -24 -13 -37 -20 -30 -20 -46 -2 -39 8 3
17 1 21 -5 3 -6 0 -9 -8 -5 -20 7 -33 -16 -16 -27 8 -5 10 -9 5 -9 -6 0 -19 9
-31 20 l-21 20 19 73 c36 136 56 242 68 364 l13 122 57 -31 c52 -27 57 -32 43
-46z m-3577 62 c-3 -3 -12 -4 -19 -1 -8 3 -5 6 6 6 11 1 17 -2 13 -5z m60 0
c-3 -3 -12 -4 -19 -1 -8 3 -5 6 6 6 11 1 17 -2 13 -5z m3233 -98 c0 -6 -5 -4
-10 4 -8 12 -10 10 -10 -8 0 -13 5 -32 10 -43 6 -11 7 -19 1 -19 -13 0 -21 26
-21 67 0 30 2 34 15 23 8 -7 15 -18 15 -24z m340 20 c0 -2 -7 -7 -16 -10 -8
-3 -12 -2 -9 4 6 10 25 14 25 6z m1257 -52 c-3 -3 -12 -4 -19 -1 -8 3 -5 6 6
6 11 1 17 -2 13 -5z m-1630 -56 c-3 -8 -6 -5 -6 6 -1 11 2 17 5 13 3 -3 4 -12
1 -19z m-4797 -58 c0 -5 -7 -10 -15 -10 -8 0 -15 -5 -15 -12 0 -6 -2 -9 -5 -6
-3 3 -3 13 1 22 7 17 34 22 34 6z m4757 -82 c-3 -8 -6 -5 -6 6 -1 11 2 17 5
13 3 -3 4 -12 1 -19z m1233 -68 c0 -5 -2 -10 -4 -10 -3 0 -8 5 -11 10 -3 6 -1
10 4 10 6 0 11 -4 11 -10z m-767 -17 c-7 -2 -13 -9 -13 -14 0 -6 5 -7 10 -4 6
3 10 1 10 -4 0 -14 -27 -14 -35 -1 -9 14 3 30 23 29 11 0 12 -3 5 -6z m-449
-85 c-13 -46 -23 -55 -24 -22 0 31 6 44 22 44 5 0 6 -10 2 -22z m294 -236 c2
-7 -2 -10 -12 -6 -9 3 -16 11 -16 16 0 13 23 5 28 -10z m-2801 2 c-3 -3 -12
-4 -19 -1 -8 3 -5 6 6 6 11 1 17 -2 13 -5z m80 0 c-3 -3 -12 -4 -19 -1 -8 3
-5 6 6 6 11 1 17 -2 13 -5z m2640 -16 c-3 -8 -6 -5 -6 6 -1 11 2 17 5 13 3 -3
4 -12 1 -19z m270 0 c-3 -8 -6 -5 -6 6 -1 11 2 17 5 13 3 -3 4 -12 1 -19z
m-977 -199 c0 -6 -4 -7 -10 -4 -5 3 -10 11 -10 16 0 6 5 7 10 4 6 -3 10 -11
10 -16z m50 -39 c15 -5 18 -8 8 -9 -9 -1 -25 -4 -35 -7 -15 -5 -15 -4 -3 5 11
8 11 11 2 11 -7 0 -15 -7 -19 -16 -3 -8 -12 -13 -20 -10 -8 3 -11 1 -8 -4 3
-6 -2 -13 -12 -17 -10 -3 -36 -22 -57 -42 -39 -36 -39 -36 -18 -5 31 45 99
104 120 103 9 -1 28 -5 42 -9z m-3623 -72 c-3 -8 -6 -5 -6 6 -1 11 2 17 5 13
3 -3 4 -12 1 -19z m112 -43 c13 7 7 -23 -6 -36 -8 -8 -17 -8 -33 1 -12 6 -19
14 -16 17 3 3 12 0 21 -7 9 -7 19 -10 23 -6 4 4 -4 16 -18 27 -23 19 -23 19
-2 9 12 -6 26 -8 31 -5z m61 -50 c0 -11 -9 -15 -30 -13 -30 2 -36 8 -23 21 13
14 53 7 53 -8z m-76 -33 c2 -4 -4 -8 -14 -8 -10 0 -16 4 -14 8 3 4 9 8 14 8 5
0 11 -4 14 -8z m3310 -62 c-6 -6 -10 -3 -10 10 0 13 4 16 10 10 7 -7 7 -13 0
-20z m-24 4 c0 -8 -5 -12 -10 -9 -6 4 -8 11 -5 16 9 14 15 11 15 -7z m-790
-204 c0 -5 -5 -10 -11 -10 -5 0 -7 5 -4 10 3 6 8 10 11 10 2 0 4 -4 4 -10z
m-40 -10 c0 -5 -4 -10 -10 -10 -5 0 -10 5 -10 10 0 6 5 10 10 10 6 0 10 -4 10
-10z m-285 -30 c3 -5 1 -10 -4 -10 -6 0 -11 5 -11 10 0 6 2 10 4 10 3 0 8 -4
11 -10z m-910 -80 c3 -5 -1 -10 -9 -10 -8 0 -18 5 -21 10 -3 6 1 10 9 10 8 0
18 -4 21 -10z m-1820 -150 c3 -5 1 -10 -4 -10 -6 0 -11 5 -11 10 0 6 2 10 4
10 3 0 8 -4 11 -10z m55 -50 c0 -5 -2 -10 -4 -10 -3 0 -8 5 -11 10 -3 6 -1 10
4 10 6 0 11 -4 11 -10z m165 -30 c3 -5 2 -10 -4 -10 -5 0 -13 5 -16 10 -3 6
-2 10 4 10 5 0 13 -4 16 -10z m-27 -252 c7 -7 12 -19 12 -28 0 -9 9 -25 20
-35 12 -10 18 -25 15 -33 -5 -13 -3 -13 12 -1 10 9 14 9 10 2 -5 -8 8 -23 35
-42 24 -17 58 -44 76 -61 18 -16 36 -30 40 -30 4 0 13 -9 20 -20 7 -11 17 -20
23 -20 14 0 43 -29 36 -36 -3 -4 -16 3 -28 15 -13 12 -29 21 -36 21 -7 0 -13
5 -13 10 0 6 -6 10 -12 10 -7 0 7 -18 32 -40 25 -21 51 -37 58 -35 7 3 11 1 8
-4 -7 -10 18 -22 37 -17 6 1 9 1 4 -1 -4 -3 3 -14 15 -24 16 -14 7 -12 -27 7
-53 30 -178 122 -183 136 -2 4 -10 8 -17 8 -8 0 -26 16 -41 35 -15 20 -28 34
-31 32 -2 -2 -30 23 -63 56 -51 52 -57 61 -44 74 7 8 14 19 14 24 0 13 14 11
28 -3z m4230 -134 c-4 -3 -12 5 -18 18 -12 22 -12 22 6 6 10 -10 15 -20 12
-24z m-901 -440 c-3 -3 -12 -4 -19 -1 -8 3 -5 6 6 6 11 1 17 -2 13 -5z m24
-12 c-5 -10 -17 -24 -25 -32 -13 -10 -16 -10 -16 4 0 18 -15 22 -23 6 -3 -6
-4 -5 -3 2 1 7 13 15 27 16 13 2 28 8 34 13 14 14 17 11 6 -9z m-1014 -574
c-2 -35 -3 -9 -3 57 0 66 1 94 3 63 2 -32 2 -86 0 -120z m-110 80 c-3 -7 -5
-2 -5 12 0 14 2 19 5 13 2 -7 2 -19 0 -25z m3 -88 c0 -5 -4 -10 -10 -10 -5 0
-10 5 -10 10 0 6 5 10 10 10 6 0 10 -4 10 -10z m81 -43 c-13 -13 -15 1 -4 30
7 17 8 17 11 -1 2 -10 -1 -23 -7 -29z m-202 9 c10 -6 12 -5 7 2 -10 16 16 15
33 0 11 -10 13 -10 7 0 -8 13 10 17 18 3 12 -18 -53 -30 -181 -33 -72 -2 -126
0 -121 3 6 4 7 13 3 20 -6 9 -4 11 8 6 9 -3 19 -2 21 2 7 11 187 8 205 -3z
m125 2 c-5 -8 -2 -9 9 -5 10 3 17 2 17 -3 0 -6 -9 -10 -20 -10 -20 0 -26 11
-13 23 10 11 15 8 7 -5z m-305 -112 c10 -12 8 -14 -16 -11 -15 2 -29 4 -31 4
-2 1 0 6 3 11 9 14 31 12 44 -4z m177 5 c29 -1 41 -5 41 -16 0 -13 -16 -15
-94 -14 -51 1 -96 5 -99 10 -3 5 2 9 10 9 9 0 16 3 16 8 0 6 19 7 126 3z
m-161 -105 c19 -4 41 -1 58 9 31 16 157 10 157 -8 0 -5 7 -7 15 -3 8 3 15 1
15 -5 0 -16 -17 -18 -158 -21 l-132 -3 0 30 c0 17 4 25 8 19 4 -6 21 -14 37
-18z m170 -84 c7 -18 -12 -62 -27 -62 -39 1 -58 13 -58 39 0 15 2 30 5 33 10
10 75 2 80 -10z m-160 -22 c-2 -11 1 -20 6 -20 6 0 7 -4 4 -10 -3 -5 1 -10 11
-10 13 0 14 -3 5 -13 -6 -8 -8 -17 -4 -20 3 -4 -3 -7 -15 -7 -20 0 -22 5 -22
50 0 28 4 50 9 50 6 0 8 -9 6 -20z m225 -44 c0 -3 -4 -8 -10 -11 -5 -3 -10 -1
-10 4 0 6 5 11 10 11 6 0 10 -2 10 -4z m-117 -13 c-7 -2 -19 -2 -25 0 -7 3 -2
5 12 5 14 0 19 -2 13 -5z"/>
<path d="M5815 6960 c-19 -8 -19 -9 2 -9 12 -1 25 4 28 9 7 12 -2 12 -30 0z"/>
<path d="M5878 6953 c7 -3 16 -2 19 1 4 3 -2 6 -13 5 -11 0 -14 -3 -6 -6z"/>
<path d="M5938 6943 c7 -3 16 -2 19 1 4 3 -2 6 -13 5 -11 0 -14 -3 -6 -6z"/>
<path d="M5567 6894 c-16 -9 -27 -18 -24 -20 3 -3 20 4 38 15 39 24 28 28 -14
5z"/>
<path d="M5141 6214 c0 -11 3 -14 6 -6 3 7 2 16 -1 19 -3 4 -6 -2 -5 -13z"/>
<path d="M4541 6554 c0 -11 3 -14 6 -6 3 7 2 16 -1 19 -3 4 -6 -2 -5 -13z"/>
<path d="M4841 6424 c0 -11 3 -14 6 -6 3 7 2 16 -1 19 -3 4 -6 -2 -5 -13z"/>
<path d="M5790 6310 c0 -5 5 -10 11 -10 5 0 7 5 4 10 -3 6 -8 10 -11 10 -2 0
-4 -4 -4 -10z"/>
<path d="M5790 5706 c0 -2 8 -10 18 -17 15 -13 16 -12 3 4 -13 16 -21 21 -21
13z"/>
<path d="M3550 5198 c0 -27 29 -185 43 -238 48 -176 137 -379 230 -522 149
-230 440 -453 717 -550 182 -63 472 -75 532 -21 12 11 18 30 18 62 0 83 -17
91 -207 91 -201 0 -299 22 -458 102 -44 22 -110 62 -146 88 -38 27 -71 44 -76
39 -4 -4 -15 -4 -23 1 -13 8 -12 10 3 10 10 0 15 5 12 10 -4 6 -11 7 -17 4 -6
-4 -8 -2 -4 4 3 6 2 13 -4 17 -5 3 -10 0 -10 -7 0 -8 -9 -14 -21 -15 -17 -2
-20 3 -16 23 4 24 4 24 -16 7 -20 -18 -20 -17 -14 5 5 20 3 22 -11 10 -11 -9
-13 -9 -9 -1 5 7 -2 19 -18 29 -13 9 -23 20 -20 24 2 4 -4 15 -15 25 -11 10
-20 23 -20 29 0 6 4 5 9 -2 7 -11 9 -11 14 2 4 9 1 15 -6 13 -7 -1 -11 3 -10
10 2 7 -3 10 -11 7 -20 -8 -30 14 -16 31 9 11 9 15 1 15 -6 0 -11 -4 -11 -10
0 -5 -5 -10 -11 -10 -5 0 -7 5 -4 10 3 6 1 10 -5 10 -7 0 -10 6 -8 12 3 7 0
18 -6 25 -47 53 -69 91 -60 104 4 7 3 9 -4 5 -6 -3 -14 3 -17 15 -4 11 -19 46
-33 77 -14 32 -27 63 -28 71 -1 7 -8 19 -14 25 -16 15 -4 -30 17 -63 13 -21
13 -25 -2 -40 -14 -14 -15 -14 -10 -1 3 9 -1 35 -10 59 -8 24 -12 47 -9 52 8
13 -6 50 -16 44 -4 -3 -6 5 -2 17 3 14 1 19 -6 14 -6 -4 -18 5 -26 21 -8 15
-15 21 -16 13 0 -14 -21 15 -35 50 -4 8 -14 33 -24 55 -10 22 -21 54 -25 72
-4 19 -15 35 -27 38 -10 4 -19 13 -19 20 0 8 -4 17 -10 20 -5 3 -10 0 -10 -7z"/>
<path d="M3164 5051 c-17 -11 -36 -34 -43 -52 -12 -34 -14 -125 -3 -99 4 8 20
16 35 16 26 1 27 0 13 -20 -8 -12 -23 -20 -35 -19 -25 3 -28 -19 -5 -37 13
-11 16 -10 20 6 5 19 62 49 73 39 2 -3 -8 -18 -22 -33 -15 -16 -27 -31 -27
-34 0 -4 16 -16 35 -28 34 -21 35 -21 77 -2 63 27 78 46 78 96 0 23 -3 46 -7
50 -5 4 -8 13 -8 19 0 7 -10 13 -23 15 -12 2 -20 7 -17 12 3 5 -9 25 -27 46
l-33 37 34 -17 c18 -10 35 -15 37 -13 9 8 -64 37 -93 37 -15 0 -42 -9 -59 -19z
m-30 -197 c3 -8 2 -12 -4 -9 -6 3 -10 10 -10 16 0 14 7 11 14 -7z"/>
<path d="M7533 4902 c-8 -5 1 -8 22 -8 21 0 30 3 22 8 -6 4 -16 8 -22 8 -5 0
-16 -4 -22 -8z"/>
<path d="M3846 4707 c3 -10 9 -15 12 -12 3 3 0 11 -7 18 -10 9 -11 8 -5 -6z"/>
<path d="M3587 4474 c-2 -3 7 -17 22 -32 14 -15 39 -43 54 -62 l29 -35 -28 40
c-42 60 -71 94 -77 89z"/>
<path d="M4094 4348 c-4 -7 -4 -10 1 -6 4 4 15 2 24 -5 14 -11 14 -10 2 6 -16
20 -18 21 -27 5z"/>
<path d="M3711 4308 c31 -45 173 -211 196 -229 9 -8 -14 22 -53 66 -39 45 -90
106 -113 138 -46 61 -67 78 -30 25z"/>
<path d="M3392 4250 c-18 -29 -15 -38 4 -12 9 13 14 25 12 27 -2 2 -9 -5 -16
-15z"/>
<path d="M4983 4115 c0 -27 2 -38 4 -22 2 15 2 37 0 50 -2 12 -4 0 -4 -28z"/>
<path d="M3405 4130 c-17 -19 -17 -21 9 -74 32 -65 98 -126 135 -126 24 1 25
2 8 14 -13 10 -15 15 -5 19 7 2 18 -5 25 -17 9 -17 13 -18 18 -6 14 37 -116
210 -158 210 -8 0 -22 -9 -32 -20z"/>
<path d="M6810 4111 c0 -5 7 -15 17 -22 15 -13 15 -12 4 9 -12 23 -21 28 -21
13z"/>
<path d="M6090 4079 c-9 -16 -7 -27 7 -51 25 -44 41 -45 58 -6 8 18 14 27 15
19 0 -8 3 -11 6 -8 12 11 -27 59 -42 53 -9 -3 -12 -1 -9 4 3 6 -1 10 -9 10 -8
0 -20 -9 -26 -21z m27 -31 c-3 -8 -6 -5 -6 6 -1 11 2 17 5 13 3 -3 4 -12 1
-19z"/>
<path d="M3390 4045 c0 -17 72 -115 84 -115 8 0 8 2 0 8 -7 4 -28 32 -48 62
-20 30 -36 50 -36 45z"/>
<path d="M3293 4005 c0 -8 4 -12 9 -9 4 3 8 9 8 15 0 5 -4 9 -8 9 -5 0 -9 -7
-9 -15z"/>
<path d="M3301 3964 c0 -11 3 -14 6 -6 3 7 2 16 -1 19 -3 4 -6 -2 -5 -13z"/>
<path d="M5793 3885 c0 -44 2 -61 4 -37 2 23 2 59 0 80 -2 20 -4 1 -4 -43z"/>
<path d="M6736 3902 c-3 -5 1 -9 9 -9 8 0 12 4 9 9 -3 4 -7 8 -9 8 -2 0 -6 -4
-9 -8z"/>
<path d="M3608 3823 c7 -3 16 -2 19 1 4 3 -2 6 -13 5 -11 0 -14 -3 -6 -6z"/>
<path d="M3555 3811 c6 -6 31 -13 55 -16 59 -8 40 10 -20 19 -31 5 -42 4 -35
-3z"/>
<path d="M6695 3799 c-4 -6 -5 -13 -2 -16 7 -7 27 6 27 18 0 12 -17 12 -25 -2z"/>
<path d="M3748 3783 c6 -2 18 -2 25 0 6 3 1 5 -13 5 -14 0 -19 -2 -12 -5z"/>
<path d="M6650 3739 c0 -5 5 -7 10 -4 6 3 10 8 10 11 0 2 -4 4 -10 4 -5 0 -10
-5 -10 -11z"/>
<path d="M5970 3561 c0 -5 7 -12 16 -15 22 -9 24 -8 24 9 0 8 -9 15 -20 15
-11 0 -20 -4 -20 -9z"/>
<path d="M5811 3514 c0 -11 3 -14 6 -6 3 7 2 16 -1 19 -3 4 -6 -2 -5 -13z"/>
<path d="M7630 4890 c0 -6 7 -10 15 -10 8 0 15 2 15 4 0 2 -7 6 -15 10 -8 3
-15 1 -15 -4z"/>
<path d="M7680 4856 c0 -9 5 -16 10 -16 6 0 10 4 10 9 0 6 -4 13 -10 16 -5 3
-10 -1 -10 -9z"/>
<path d="M7655 4570 c-3 -5 -1 -10 4 -10 6 0 11 5 11 10 0 6 -2 10 -4 10 -3 0
-8 -4 -11 -10z"/>
<path d="M3151 2706 c2 -2 15 -9 29 -15 24 -11 24 -11 6 3 -16 13 -49 24 -35
12z"/>
<path d="M6720 7346 c0 -2 8 -10 18 -17 15 -13 16 -12 3 4 -13 16 -21 21 -21
13z"/>
<path d="M2805 7330 c-4 -6 -10 -8 -14 -6 -4 3 -13 0 -21 -5 -11 -7 -10 -8 8
-6 20 3 56 27 40 27 -4 0 -10 -5 -13 -10z"/>
<path d="M6780 7295 c13 -14 26 -25 28 -25 3 0 -5 11 -18 25 -13 14 -26 25
-28 25 -3 0 5 -11 18 -25z"/>
<path d="M7480 7286 c0 -2 8 -10 18 -17 15 -13 16 -12 3 4 -13 16 -21 21 -21
13z"/>
<path d="M6840 7245 c13 -14 26 -25 28 -25 3 0 -5 11 -18 25 -13 14 -26 25
-28 25 -3 0 5 -11 18 -25z"/>
<path d="M4545 7219 c-73 -38 -226 -131 -269 -164 -23 -17 -49 -36 -58 -41 -9
-5 -45 -37 -81 -70 l-64 -62 -69 59 c-38 32 -73 59 -77 59 -5 0 24 -27 62 -61
39 -33 71 -66 71 -73 0 -7 -11 -23 -25 -36 -13 -12 -22 -26 -20 -30 3 -4 -7
-15 -20 -24 -14 -9 -23 -21 -20 -25 3 -5 -1 -11 -9 -14 -37 -15 -140 -198
-182 -324 -51 -156 -65 -246 -71 -457 l-6 -199 34 6 c19 4 101 13 183 22 83 8
152 17 154 20 3 2 2 11 -1 19 -4 10 -17 13 -44 10 -81 -9 -271 -33 -284 -36
-10 -2 -12 27 -11 152 2 85 5 175 8 200 22 173 111 416 186 512 17 21 26 43
22 49 -4 7 -3 9 3 6 6 -4 30 19 53 50 118 156 244 263 463 394 125 75 160 103
72 58z"/>
<path d="M2884 7208 l-19 -23 23 19 c21 18 27 26 19 26 -2 0 -12 -10 -23 -22z"/>
<path d="M7368 7223 c6 -2 18 -2 25 0 6 3 1 5 -13 5 -14 0 -19 -2 -12 -5z"/>
<path d="M7530 7226 c0 -2 8 -10 18 -17 15 -13 16 -12 3 4 -13 16 -21 21 -21
13z"/>
<path d="M2630 7157 c-35 -42 -46 -62 -30 -52 10 6 12 4 7 -9 -4 -10 -7 -20
-7 -23 0 -3 -7 0 -15 7 -13 11 -14 10 -9 -3 3 -9 -2 -19 -14 -26 -11 -6 -25
-23 -31 -38 -7 -16 -18 -39 -26 -53 -8 -14 -15 -33 -15 -44 0 -15 3 -16 15 -6
18 15 20 35 3 24 -7 -4 -8 -3 -4 5 4 6 11 9 15 7 4 -3 18 6 30 20 17 19 19 29
11 44 -14 26 -13 31 8 28 11 -2 16 2 14 12 -3 11 -1 12 8 3 15 -14 3 -36 -16
-29 -8 3 -11 0 -7 -10 5 -12 10 -11 30 8 13 12 19 24 14 26 -6 2 -11 8 -11 14
0 6 6 8 14 5 8 -3 24 6 37 21 18 20 18 22 4 10 -20 -16 -21 -16 -34 4 -11 18
-9 24 15 49 15 16 26 30 23 33 -2 2 -15 -10 -29 -27z"/>
<path d="M2853 7168 c-5 -7 -22 -31 -37 -53 l-28 -40 29 32 29 32 74 -34 c41
-19 81 -35 88 -35 21 0 4 17 -23 24 -14 4 -50 18 -80 33 -45 20 -53 28 -44 39
6 8 9 14 6 14 -2 0 -9 -6 -14 -12z"/>
<path d="M7600 7135 c13 -14 26 -25 28 -25 3 0 -5 11 -18 25 -13 14 -26 25
-28 25 -3 0 5 -11 18 -25z"/>
<path d="M1579 7136 c-1 -6 -1 -14 0 -18 0 -5 -5 -8 -12 -8 -18 0 -41 -45 -32
-61 5 -7 4 -10 -3 -5 -11 7 -38 -32 -28 -41 3 -3 8 2 12 11 3 9 10 13 15 11 5
-3 11 6 15 20 3 14 10 25 15 25 5 0 17 17 28 38 16 31 17 39 5 39 -8 0 -15 -5
-15 -11z"/>
<path d="M2631 7126 c-16 -19 -1 -25 27 -11 20 11 21 13 7 19 -22 8 -21 8 -34
-8z"/>
<path d="M7426 7131 c-8 -13 31 -44 45 -35 9 5 10 2 6 -10 -4 -10 -1 -19 8
-22 8 -4 15 -10 15 -15 0 -16 163 -224 173 -221 5 2 7 -4 4 -12 -7 -17 16 -39
28 -28 5 4 5 -1 2 -10 -4 -10 -3 -18 1 -18 5 0 16 -18 26 -40 10 -22 22 -38
27 -35 5 4 9 0 9 -7 0 -8 16 -41 36 -74 50 -82 162 -307 219 -439 26 -60 51
-114 54 -120 14 -19 80 -211 100 -290 22 -86 56 -251 66 -327 10 -68 26 -60
19 10 -17 163 -55 340 -92 432 -6 14 -27 70 -47 125 -20 55 -51 134 -68 175
-47 113 -222 451 -246 476 -12 12 -21 25 -21 29 0 7 -65 103 -135 197 -16 22
-36 52 -43 65 -8 14 -33 44 -55 68 -23 24 -43 46 -43 50 -3 12 -67 85 -75 85
-4 0 -10 -4 -13 -9z m144 -151 c6 -11 9 -20 8 -20 -2 0 -11 9 -21 20 -9 11
-13 20 -7 20 5 0 14 -9 20 -20z m250 -360 c6 -11 8 -20 6 -20 -3 0 -10 9 -16
20 -6 11 -8 20 -6 20 3 0 10 -9 16 -20z"/>
<path d="M3590 7108 c-12 -22 -12 -22 6 -6 10 10 15 20 12 24 -4 3 -12 -5 -18
-18z"/>
<path d="M2839 7091 c7 -5 10 -14 7 -20 -4 -6 -3 -11 3 -11 5 0 12 4 16 10 3
6 15 5 31 -2 18 -8 27 -9 36 0 8 8 5 9 -13 6 -20 -5 -21 -4 -9 6 12 9 11 10
-9 5 -16 -5 -21 -4 -17 4 4 6 2 11 -3 11 -6 0 -11 -5 -11 -12 0 -9 -3 -9 -12
0 -7 7 -17 12 -22 12 -6 0 -5 -4 3 -9z"/>
<path d="M3938 7083 c-24 -33 -93 -39 -114 -9 -16 24 -19 14 -4 -15 6 -10 27
-27 48 -38 l37 -19 18 24 c10 13 18 27 18 31 1 5 5 16 10 26 5 9 8 17 5 17 -3
0 -11 -8 -18 -17z m-3 -33 c-3 -5 -12 -10 -18 -10 -7 0 -6 4 3 10 19 12 23 12
15 0z m-50 -10 c13 -6 15 -9 5 -9 -8 0 -22 4 -30 9 -18 12 -2 12 25 0z"/>
<path d="M3549 7073 c-13 -16 -12 -17 4 -4 16 13 21 21 13 21 -2 0 -10 -8 -17
-17z"/>
<path d="M2780 7061 c0 -4 24 -21 53 -36 105 -58 188 -115 182 -128 -4 -6 14
11 39 38 25 28 51 62 57 78 6 15 16 27 21 27 15 0 79 -36 173 -99 l90 -60 60
66 c72 80 104 126 45 65 -23 -24 -48 -41 -55 -38 -8 3 -12 0 -10 -7 3 -7 -7
-25 -20 -40 l-25 -28 -75 51 c-78 53 -165 100 -183 100 -6 0 -20 -15 -31 -32
-12 -18 -33 -46 -47 -62 -28 -32 -30 -31 -119 23 -87 54 -155 90 -155 82z"/>
<path d="M6939 6985 c79 -89 80 -90 99 -71 15 16 15 17 1 11 -11 -4 -37 13
-80 52 l-64 58 44 -50z"/>
<path d="M1462 6938 c-18 -30 -32 -65 -32 -77 0 -12 -4 -19 -10 -16 -6 4 -7
-1 -3 -11 6 -16 7 -15 20 2 7 10 13 24 13 31 0 7 4 13 8 13 13 0 33 50 26 62
-4 6 -1 14 6 18 7 4 10 14 8 21 -2 7 -19 -12 -36 -43z m0 -40 c-7 -7 -12 -8
-12 -2 0 14 12 26 19 19 2 -3 -1 -11 -7 -17z"/>
<path d="M2471 6924 c-1 -5 -10 -20 -21 -32 -12 -12 -16 -22 -10 -22 18 0 11
-22 -10 -27 -11 -3 -17 -9 -14 -14 9 -15 18 -10 48 29 16 20 23 31 16 25 -22
-21 -35 -15 -16 6 10 11 16 26 13 33 -3 7 -6 8 -6 2z"/>
<path d="M6990 6880 c-9 -6 -10 -10 -3 -10 6 0 15 5 18 10 8 12 4 12 -15 0z"/>
<path d="M1404 6794 c-4 -10 -9 -22 -11 -26 -2 -5 0 -8 6 -8 11 0 26 39 17 47
-3 3 -9 -3 -12 -13z"/>
<path d="M2402 6790 c-7 -12 -16 -18 -21 -15 -14 8 -32 -21 -24 -40 4 -12 3
-16 -5 -11 -12 7 -44 -32 -37 -45 3 -4 -8 -21 -25 -37 -16 -17 -30 -37 -30
-45 0 -21 -26 -68 -33 -60 -4 3 -7 1 -7 -6 0 -7 -14 -43 -32 -79 -17 -37 -39
-91 -49 -122 -9 -30 -32 -93 -49 -140 -36 -96 -93 -297 -88 -312 2 -5 15 32
30 84 73 260 209 567 333 752 36 53 62 96 58 96 -5 0 -14 -9 -21 -20z m-30
-42 c-7 -7 -12 -8 -12 -2 0 14 12 26 19 19 2 -3 -1 -11 -7 -17z m-84 -133 c-6
-14 -13 -23 -15 -21 -5 5 15 46 22 46 3 0 -1 -11 -7 -25z"/>
<path d="M2695 6769 c33 -17 82 -44 108 -61 26 -17 50 -28 52 -26 10 10 -179
118 -207 118 -7 0 14 -14 47 -31z"/>
<path d="M1380 6731 c0 -7 -4 -9 -10 -6 -6 4 -7 -1 -3 -11 6 -15 7 -15 15 1 6
9 7 19 4 22 -3 4 -6 1 -6 -6z"/>
<path d="M3272 6718 c-14 -18 -53 -98 -48 -98 2 0 18 25 34 55 30 54 34 67 14
43z"/>
<path d="M2885 6690 c-9 -16 -13 -30 -11 -30 3 0 12 14 21 30 9 17 13 30 11
30 -3 0 -12 -13 -21 -30z"/>
<path d="M1302 6585 c-9 -18 -8 -26 1 -31 7 -4 9 -4 5 1 -4 4 -3 16 3 27 6 11
9 22 6 24 -2 2 -9 -7 -15 -21z"/>
<path d="M2486 6453 c-6 -14 -5 -15 5 -6 7 7 10 15 7 18 -3 3 -9 -2 -12 -12z"/>
<path d="M2736 6379 c-20 -50 -35 -93 -33 -95 2 -3 21 37 41 87 20 51 35 93
33 95 -2 2 -20 -37 -41 -87z"/>
<path d="M2483 6366 c0 -13 6 -27 13 -30 16 -6 14 28 -3 45 -7 7 -10 3 -10
-15z"/>
<path d="M2447 6324 c-4 -4 -7 -14 -7 -23 0 -11 3 -12 11 -4 6 6 10 16 7 23
-2 6 -7 8 -11 4z"/>
<path d="M1211 6304 c0 -11 3 -14 6 -6 3 7 2 16 -1 19 -3 4 -6 -2 -5 -13z"/>
<path d="M2430 6252 c0 -6 -8 -13 -17 -15 -16 -4 -16 -5 -1 -6 18 -1 34 16 24
26 -3 4 -6 1 -6 -5z"/>
<path d="M1181 6203 c-1 -6 -4 -20 -7 -30 -5 -15 -4 -15 5 -3 9 12 11 13 11 1
0 -8 2 -12 5 -9 3 3 1 16 -4 29 -5 13 -10 19 -10 12z"/>
<path d="M3011 6174 c0 -11 3 -14 6 -6 3 7 2 16 -1 19 -3 4 -6 -2 -5 -13z"/>
<path d="M1161 6114 c0 -11 3 -14 6 -6 3 7 2 16 -1 19 -3 4 -6 -2 -5 -13z"/>
<path d="M4151 6094 c0 -11 3 -14 6 -6 3 7 2 16 -1 19 -3 4 -6 -2 -5 -13z"/>
<path d="M4120 6076 c0 -31 6 -34 13 -6 3 11 1 23 -4 26 -5 3 -9 -6 -9 -20z"/>
<path d="M1153 6074 c-3 -9 -1 -19 4 -23 6 -3 13 -13 16 -21 4 -10 6 -8 6 8 1
12 -4 22 -10 22 -6 0 -9 7 -5 15 3 8 3 15 0 15 -2 0 -7 -7 -11 -16z"/>
<path d="M1140 6028 c0 -9 5 -20 10 -23 13 -8 13 5 0 25 -8 13 -10 13 -10 -2z"/>
<path d="M2496 6015 c-19 -15 -19 -15 2 -15 13 0 22 6 22 15 0 18 0 18 -24 0z"/>
<path d="M7021 6004 c0 -11 3 -14 6 -6 3 7 2 16 -1 19 -3 4 -6 -2 -5 -13z"/>
<path d="M2827 6002 c-3 -4 9 -7 26 -7 29 0 33 -4 38 -35 6 -35 6 -35 8 -4 0
16 -4 35 -11 42 -13 13 -54 16 -61 4z"/>
<path d="M1131 5984 c0 -11 3 -14 6 -6 3 7 2 16 -1 19 -3 4 -6 -2 -5 -13z"/>
<path d="M3530 5954 c-47 -7 -114 -17 -150 -23 l-65 -10 83 6 82 5 -2 -230
c-2 -145 1 -234 7 -240 6 -4 42 -4 83 1 l72 9 0 249 c0 193 -3 249 -12 248 -7
-1 -51 -7 -98 -15z"/>
<path d="M7031 5948 c-1 -19 6 -31 22 -39 21 -11 21 -11 6 7 -10 10 -19 28
-22 39 -4 15 -5 14 -6 -7z"/>
<path d="M1122 5935 c0 -16 2 -22 5 -12 2 9 2 23 0 30 -3 6 -5 -1 -5 -18z"/>
<path d="M2488 5933 c7 -3 16 -2 19 1 4 3 -2 6 -13 5 -11 0 -14 -3 -6 -6z"/>
<path d="M3273 5913 c9 -2 23 -2 30 0 6 3 -1 5 -18 5 -16 0 -22 -2 -12 -5z"/>
<path d="M3170 5900 c-17 -6 -9 -7 25 -3 28 3 52 7 54 9 8 7 -54 2 -79 -6z"/>
<path d="M3269 5882 l-136 -26 -7 -229 c-4 -126 -5 -231 -2 -234 2 -3 13 0 23
6 10 6 12 11 6 11 -7 0 -13 4 -13 9 0 5 67 19 149 32 l149 23 7 190 c8 225 7
241 -20 242 -11 1 -81 -10 -156 -24z"/>
<path d="M1106 5854 c-3 -26 -4 -49 -2 -52 3 -2 8 17 11 43 4 25 5 48 3 51 -3
2 -8 -17 -12 -42z"/>
<path d="M1991 5844 c0 -11 3 -14 6 -6 3 7 2 16 -1 19 -3 4 -6 -2 -5 -13z"/>
<path d="M1981 5804 c0 -11 3 -14 6 -6 3 7 2 16 -1 19 -3 4 -6 -2 -5 -13z"/>
<path d="M1093 5745 c0 -22 2 -30 4 -17 2 12 2 30 0 40 -3 9 -5 -1 -4 -23z"/>
<path d="M1972 5760 c0 -14 2 -19 5 -12 2 6 2 18 0 25 -3 6 -5 1 -5 -13z"/>
<path d="M9168 5709 c-6 -14 -3 -42 8 -96 2 -13 9 -23 15 -23 6 0 8 9 4 21 -4
11 -10 42 -14 67 -4 28 -9 41 -13 31z"/>
<path d="M9142 5680 c0 -14 2 -19 5 -12 2 6 2 18 0 25 -3 6 -5 1 -5 -13z"/>
<path d="M7300 5670 c8 -5 22 -9 30 -9 10 0 8 3 -5 9 -27 12 -43 12 -25 0z"/>
<path d="M4571 5641 c-18 -12 -23 -41 -7 -41 16 0 36 21 36 37 0 15 -9 16 -29
4z"/>
<path d="M3890 5534 c0 -8 5 -12 10 -9 6 4 8 11 5 16 -9 14 -15 11 -15 -7z"/>
<path d="M9197 5483 c-4 -3 -7 -11 -7 -17 0 -6 5 -5 12 2 6 6 9 14 7 17 -3 3
-9 2 -12 -2z"/>
<path d="M9199 5448 c-6 -17 -5 -68 1 -58 6 9 10 6 13 -11 3 -15 5 -8 6 18 0
23 -3 45 -9 48 -5 3 -10 5 -11 3z"/>
<path d="M9173 5350 c0 -30 2 -43 4 -27 2 15 2 39 0 55 -2 15 -4 2 -4 -28z"/>
<path d="M9195 5340 c9 -30 13 -35 21 -27 3 3 -2 16 -11 29 l-17 23 7 -25z"/>
<path d="M8028 5293 c7 -3 16 -2 19 1 4 3 -2 6 -13 5 -11 0 -14 -3 -6 -6z"/>
<path d="M8843 5243 c31 -2 83 -2 115 0 31 2 5 3 -58 3 -63 0 -89 -1 -57 -3z"/>
<path d="M9058 5243 c6 -2 18 -2 25 0 6 3 1 5 -13 5 -14 0 -19 -2 -12 -5z"/>
<path d="M9186 5217 c3 -10 9 -15 12 -12 3 3 0 11 -7 18 -10 9 -11 8 -5 -6z"/>
<path d="M9210 5215 c0 -8 5 -15 10 -15 6 0 10 7 10 15 0 8 -4 15 -10 15 -5 0
-10 -7 -10 -15z"/>
<path d="M9505 5120 c27 -12 43 -12 25 0 -8 5 -22 9 -30 9 -10 0 -8 -3 5 -9z"/>
<path d="M9613 5099 c7 -12 15 -15 21 -9 6 6 25 10 43 10 26 0 34 -5 37 -22 3
-13 7 -32 9 -43 3 -11 5 1 6 28 1 45 0 47 -26 48 -16 1 -45 2 -65 4 -34 3 -36
2 -25 -16z"/>
<path d="M9656 5075 c-9 -26 -7 -32 5 -12 6 10 9 21 6 23 -2 3 -7 -2 -11 -11z"/>
<path d="M9686 5081 c-4 -7 -5 -15 -2 -18 9 -9 19 4 14 18 -4 11 -6 11 -12 0z"/>
<path d="M8786 5062 c-3 -4 4 -9 15 -9 23 -2 25 3 4 10 -8 4 -16 3 -19 -1z"/>
<path d="M8937 5064 c-13 -13 -7 -19 23 -21 17 -1 30 2 30 7 0 6 -4 10 -9 10
-5 0 -16 2 -23 5 -8 3 -17 2 -21 -1z"/>
<path d="M1083 4765 c0 -27 2 -38 4 -22 2 15 2 37 0 50 -2 12 -4 0 -4 -28z"/>
<path d="M9142 4710 c0 -14 2 -19 5 -12 2 6 2 18 0 25 -3 6 -5 1 -5 -13z"/>
<path d="M1091 4694 c0 -11 3 -14 6 -6 3 7 2 16 -1 19 -3 4 -6 -2 -5 -13z"/>
<path d="M9132 4640 c0 -14 2 -19 5 -12 2 6 2 18 0 25 -3 6 -5 1 -5 -13z"/>
<path d="M9186 4651 c-4 -6 -2 -11 3 -11 6 0 12 -23 13 -52 l2 -53 3 47 c4 50
-8 90 -21 69z"/>
<path d="M1092 4620 c0 -14 2 -19 5 -12 2 6 2 18 0 25 -3 6 -5 1 -5 -13z"/>
<path d="M1720 4550 c0 -5 6 -11 13 -13 10 -4 10 -6 0 -6 -18 -1 -16 -21 1
-21 22 0 27 37 5 43 -11 3 -19 1 -19 -3z"/>
<path d="M1728 4473 c5 -25 6 -26 13 -8 6 14 8 9 6 -20 -1 -22 3 -41 8 -42 6
-2 10 2 9 7 -1 6 -2 28 -2 50 -2 32 -6 40 -21 40 -14 0 -17 -5 -13 -27z"/>
<path d="M9192 4480 c0 -14 2 -19 5 -12 2 6 2 18 0 25 -3 6 -5 1 -5 -13z"/>
<path d="M8602 4470 c0 -14 2 -19 5 -12 2 6 2 18 0 25 -3 6 -5 1 -5 -13z"/>
<path d="M8592 4400 c0 -19 2 -27 5 -17 2 9 2 25 0 35 -3 9 -5 1 -5 -18z"/>
<path d="M8382 4360 c0 -14 2 -19 5 -12 2 6 2 18 0 25 -3 6 -5 1 -5 -13z"/>
<path d="M1767 4339 c-3 -13 -2 -29 4 -35 15 -19 47 -179 42 -212 -3 -19 -2
-23 5 -13 7 9 9 0 8 -30 0 -24 4 -44 11 -46 6 -2 9 -13 6 -23 -6 -21 62 -253
107 -365 59 -147 147 -322 157 -312 2 3 -25 65 -61 138 -35 74 -74 157 -84
184 -23 56 -87 279 -98 340 -9 46 -9 45 -16 65 -3 8 -18 80 -33 160 -31 160
-39 185 -48 149z"/>
<path d="M8582 4340 c0 -14 2 -19 5 -12 2 6 2 18 0 25 -3 6 -5 1 -5 -13z"/>
<path d="M9166 4319 c-4 -23 -5 -44 -2 -46 2 -2 7 14 11 37 4 23 5 43 2 46 -2
3 -7 -14 -11 -37z"/>
<path d="M8435 4313 c-3 -16 -10 -48 -15 -73 -6 -25 -12 -58 -14 -75 -3 -29
-29 -108 -96 -294 -16 -46 -30 -85 -30 -88 0 -2 -6 -1 -12 3 -10 5 -10 3 0 -7
21 -23 44 18 95 174 55 169 65 206 72 272 3 28 7 65 10 83 7 39 -2 43 -10 5z"/>
<path d="M8372 4305 c0 -16 2 -22 5 -12 2 9 2 23 0 30 -3 6 -5 -1 -5 -18z"/>
<path d="M8362 4230 c0 -19 2 -27 5 -17 2 9 2 25 0 35 -3 9 -5 1 -5 -18z"/>
<path d="M9107 4148 c-2 -18 1 -41 7 -50 10 -13 11 -8 10 28 -2 56 -10 66 -17
22z"/>
<path d="M9131 4134 c0 -11 3 -14 6 -6 3 7 2 16 -1 19 -3 4 -6 -2 -5 -13z"/>
<path d="M8302 3970 c0 -14 2 -19 5 -12 2 6 2 18 0 25 -3 6 -5 1 -5 -13z"/>
<path d="M8265 3750 c-3 -5 -1 -10 4 -10 6 0 11 5 11 10 0 6 -2 10 -4 10 -3 0
-8 -4 -11 -10z"/>
<path d="M8236 3742 c-11 -19 -56 -145 -52 -149 2 -2 9 11 16 31 6 19 18 40
26 47 12 10 13 9 9 -4 -4 -8 -2 -18 4 -22 7 -3 11 2 11 14 0 10 6 22 13 24 7
3 4 6 -7 6 -15 1 -17 7 -14 31 5 30 3 36 -6 22z"/>
<path d="M8975 3680 c3 -5 8 -10 11 -10 2 0 4 5 4 10 0 6 -5 10 -11 10 -5 0
-7 -4 -4 -10z"/>
<path d="M8285 3630 c-3 -5 -1 -10 4 -10 6 0 11 5 11 10 0 6 -2 10 -4 10 -3 0
-8 -4 -11 -10z"/>
<path d="M8322 3555 c-17 -37 -14 -45 4 -12 9 16 14 31 11 33 -2 2 -9 -7 -15
-21z"/>
<path d="M8125 3488 c-53 -109 -193 -335 -266 -431 -33 -44 -63 -86 -66 -95
-3 -10 9 3 27 28 18 25 36 47 40 50 15 12 91 121 135 195 27 44 51 82 55 85
13 9 122 229 118 239 -1 5 -21 -27 -43 -71z"/>
<path d="M8286 3485 c-9 -26 -7 -32 5 -12 6 10 9 21 6 23 -2 3 -7 -2 -11 -11z"/>
<path d="M8848 3353 c-8 -26 -25 -72 -37 -100 -30 -76 -16 -65 20 15 17 37 34
74 38 82 5 8 5 23 2 33 -5 14 -11 6 -23 -30z"/>
<path d="M2127 3263 c4 -10 24 -47 46 -83 22 -36 42 -69 45 -74 3 -5 0 -6 -6
-2 -7 4 -12 2 -12 -3 0 -6 10 -11 22 -11 12 0 19 -3 15 -6 -7 -8 50 -102 70
-112 8 -5 13 -11 11 -13 -1 -3 7 -17 20 -33 12 -16 22 -24 22 -19 0 6 -7 16
-15 23 -8 7 -15 18 -15 25 0 7 -7 18 -15 25 -8 6 -35 50 -61 96 -26 46 -55 92
-63 102 -9 9 -25 34 -36 55 -21 41 -39 60 -28 30z"/>
<path d="M8726 3075 c-9 -26 -7 -32 5 -12 6 10 9 21 6 23 -2 3 -7 -2 -11 -11z"/>
<path d="M7100 2870 c-9 -6 -10 -10 -3 -10 6 0 15 5 18 10 8 12 4 12 -15 0z"/>
<path d="M7260 2860 c-14 -46 11 -72 47 -51 16 9 16 10 -5 11 -14 0 -26 9 -32
23 -5 12 -9 20 -10 17z"/>
<path d="M7070 2846 c0 -2 7 -7 16 -10 8 -3 12 -2 9 4 -6 10 -25 14 -25 6z"/>
<path d="M7639 2793 c-13 -17 -13 -17 6 -3 11 8 22 16 24 17 2 2 0 3 -6 3 -6
0 -17 -8 -24 -17z"/>
<path d="M7592 2740 c-13 -16 -21 -30 -19 -30 2 0 16 14 30 30 15 17 23 30 19
30 -5 0 -18 -13 -30 -30z"/>
<path d="M6906 2605 c-11 -8 -15 -15 -9 -15 6 0 16 7 23 15 16 19 11 19 -14 0z"/>
<path d="M7405 2560 c-3 -6 1 -7 9 -4 18 7 21 14 7 14 -6 0 -13 -4 -16 -10z"/>
<path d="M7340 2509 c-22 -18 -22 -19 -3 -10 12 6 25 16 28 21 9 15 3 12 -25
-11z"/>
<path d="M7265 2448 c-22 -18 -49 -41 -60 -51 -11 -10 -44 -34 -75 -54 -64
-43 -85 -60 -52 -44 12 7 28 9 34 5 6 -4 8 -3 5 3 -3 5 11 20 32 34 21 13 58
41 82 61 24 20 55 46 69 57 14 11 20 20 15 21 -6 0 -28 -15 -50 -32z"/>
<path d="M7005 2259 c-16 -10 -25 -19 -20 -19 6 0 24 9 40 20 17 11 26 20 20
19 -5 0 -23 -9 -40 -20z"/>
<path d="M6916 2204 c-11 -8 -16 -14 -10 -14 13 0 39 18 34 24 -3 2 -14 -2
-24 -10z"/>
<path d="M2030 2026 c0 -2 8 -10 18 -17 15 -13 16 -12 3 4 -13 16 -21 21 -21
13z"/>
<path d="M4635 2020 c-3 -6 1 -7 9 -4 18 7 21 14 7 14 -6 0 -13 -4 -16 -10z"/>
<path d="M4620 1986 c0 -8 -3 -21 -6 -30 -4 -10 -1 -16 8 -16 10 0 15 11 16
30 0 17 -4 30 -9 30 -5 0 -9 -6 -9 -14z"/>
<path d="M6868 1883 c7 -3 16 -2 19 1 4 3 -2 6 -13 5 -11 0 -14 -3 -6 -6z"/>
<path d="M6760 1850 c-19 -11 -31 -19 -27 -20 11 0 67 29 67 35 0 7 -1 7 -40
-15z"/>
<path d="M6760 1820 c0 -5 4 -10 9 -10 6 0 13 5 16 10 3 6 -1 10 -9 10 -9 0
-16 -4 -16 -10z"/>
<path d="M6809 1756 c-38 -26 -78 -93 -80 -137 -7 -101 81 -189 189 -189 86 0
174 121 153 211 -23 98 -62 132 -159 136 -57 3 -72 -1 -103 -21z m105 -84 c8
-13 -23 -52 -40 -52 -20 0 -29 27 -14 45 13 16 46 20 54 7z"/>
<path d="M3625 1758 c-39 -14 -65 -37 -77 -68 -18 -47 -89 -302 -85 -306 2 -2
23 62 47 142 24 81 53 160 65 178 29 43 84 60 148 46 60 -13 75 -6 20 9 -46
13 -78 13 -118 -1z"/>
<path d="M6770 1760 c-9 -6 -10 -10 -3 -10 6 0 15 5 18 10 8 12 4 12 -15 0z"/>
<path d="M7156 1757 c3 -10 9 -15 12 -12 3 3 0 11 -7 18 -10 9 -11 8 -5 -6z"/>
<path d="M7186 1685 c8 -37 14 -45 14 -19 0 10 -5 26 -10 34 -8 11 -9 7 -4
-15z"/>
<path d="M6702 1630 c0 -14 2 -19 5 -12 2 6 2 18 0 25 -3 6 -5 1 -5 -13z"/>
<path d="M7191 1613 c0 -25 1 -26 9 -8 12 27 12 35 0 35 -5 0 -10 -12 -9 -27z"/>
<path d="M3986 1578 c-9 -45 -19 -168 -13 -168 3 0 13 32 22 70 9 39 21 73 26
76 5 3 7 10 4 15 -3 5 1 6 9 3 23 -9 20 13 -3 26 -31 16 -38 12 -45 -22z"/>
<path d="M7150 1561 c0 -25 6 -27 13 -6 4 8 2 17 -3 20 -6 4 -10 -3 -10 -14z"/>
<path d="M3667 1563 c-8 -12 30 -29 40 -19 4 3 -1 6 -9 6 -9 0 -18 5 -20 12
-3 9 -6 9 -11 1z"/>
<path d="M3961 1563 c-1 -6 -4 -20 -7 -30 -5 -17 -5 -17 6 0 6 10 9 23 6 30
-3 9 -5 9 -5 0z"/>
<path d="M4778 1533 c6 -2 18 -2 25 0 6 3 1 5 -13 5 -14 0 -19 -2 -12 -5z"/>
<path d="M3725 1467 c17 -8 32 -13 34 -11 7 7 -3 12 -34 19 l-30 6 30 -14z"/>
<path d="M6775 1460 c30 -34 93 -60 152 -60 28 0 54 3 56 8 3 4 -26 7 -63 7
-61 0 -73 3 -116 34 -36 26 -44 29 -29 11z"/>
<path d="M6666 1455 c4 -8 11 -15 16 -15 6 0 5 6 -2 15 -7 8 -14 15 -16 15 -2
0 -1 -7 2 -15z"/>
<path d="M2735 1426 c17 -14 34 -26 39 -26 11 0 11 0 -34 29 l-35 23 30 -26z"/>
<path d="M7095 1429 c-4 -6 -5 -12 -2 -15 2 -3 7 2 10 11 7 17 1 20 -8 4z"/>
<path d="M3922 1395 c0 -16 2 -22 5 -12 2 9 2 23 0 30 -3 6 -5 -1 -5 -18z"/>
<path d="M5298 1393 c7 -3 16 -2 19 1 4 3 -2 6 -13 5 -11 0 -14 -3 -6 -6z"/>
<path d="M6677 1387 c-3 -9 4 -19 19 -27 18 -10 21 -16 13 -27 -8 -9 -8 -13 0
-13 6 0 11 -6 11 -14 0 -16 26 -29 58 -28 41 0 47 3 27 13 -32 14 85 -1 123
-17 29 -12 36 -11 34 7 -1 4 4 6 11 5 7 0 12 3 12 7 0 5 15 15 34 23 19 8 31
17 28 20 -3 3 -16 0 -28 -7 -27 -14 -150 -29 -142 -17 2 5 -6 6 -20 3 -14 -4
-40 1 -63 11 -21 9 -44 16 -51 15 -6 -1 -22 13 -36 30 -18 23 -25 27 -30 16z"/>
<path d="M2790 1386 c0 -2 7 -7 16 -10 8 -3 12 -2 9 4 -6 10 -25 14 -25 6z"/>
<path d="M6786 1345 c10 -8 23 -15 28 -15 6 0 1 7 -10 15 -10 8 -23 15 -28 15
-6 0 -1 -7 10 -15z"/>
<path d="M2960 1286 c0 -3 14 -12 30 -21 17 -9 30 -13 30 -11 0 3 -13 12 -30
21 -16 9 -30 13 -30 11z"/>
<path d="M3120 1196 c0 -3 14 -12 30 -21 17 -9 30 -13 30 -11 0 3 -13 12 -30
21 -16 9 -30 13 -30 11z"/>
<path d="M3310 1095 c14 -8 30 -14 35 -14 6 0 -1 6 -15 14 -14 8 -29 14 -35
14 -5 0 1 -6 15 -14z"/>
<path d="M3370 1070 c8 -5 20 -10 25 -10 6 0 3 5 -5 10 -8 5 -19 10 -25 10 -5
0 -3 -5 5 -10z"/>
<path d="M5243 1005 c0 -27 2 -38 4 -22 2 15 2 37 0 50 -2 12 -4 0 -4 -28z"/>
<path d="M3468 1028 c5 -5 16 -8 23 -6 8 3 3 7 -10 11 -17 4 -21 3 -13 -5z"/>
<path d="M5000 942 c0 -5 55 -12 122 -15 111 -6 139 -4 127 7 -9 8 -249 16
-249 8z"/>
<path d="M3997 859 c7 -7 15 -10 18 -7 3 3 -2 9 -12 12 -14 6 -15 5 -6 -5z"/>
<path d="M4078 833 c7 -3 16 -2 19 1 4 3 -2 6 -13 5 -11 0 -14 -3 -6 -6z"/>
<path d="M8020 425 l0 -125 25 0 c25 0 25 1 25 83 l1 82 29 -62 c20 -44 34
-63 47 -63 13 0 29 20 50 63 l32 62 0 -82 c1 -82 1 -83 26 -83 l25 0 0 125 0
125 -31 0 c-28 0 -33 -5 -62 -70 -17 -38 -34 -70 -38 -70 -3 0 -20 32 -38 70
-28 64 -33 70 -61 70 l-30 0 0 -125z"/>
<path d="M8707 543 c-14 -13 -6 -33 13 -33 13 0 20 7 20 20 0 19 -20 27 -33
13z"/>
<path d="M8982 534 c-15 -10 -22 -25 -22 -49 0 -36 24 -62 80 -85 44 -18 39
-54 -8 -58 -18 -2 -40 2 -49 9 -13 11 -18 10 -29 -6 -13 -17 -13 -21 2 -32 48
-35 129 -25 154 20 22 40 4 77 -53 107 -67 36 -60 78 12 64 21 -5 30 -2 35 12
4 10 1 21 -6 26 -22 13 -92 9 -116 -8z"/>
<path d="M9600 506 l0 -44 -42 5 c-37 4 -47 1 -67 -21 -32 -34 -32 -88 -1
-121 20 -21 31 -24 91 -23 l69 0 0 124 0 124 -25 0 c-23 0 -25 -4 -25 -44z
m-12 -88 c27 -27 4 -78 -37 -78 -14 0 -41 29 -41 45 0 35 53 58 78 33z"/>
<path d="M9685 540 c-4 -7 -3 -16 3 -22 14 -14 45 -2 40 15 -6 16 -34 21 -43
7z"/>
<path d="M9160 490 c0 -11 -7 -20 -15 -20 -8 0 -15 -9 -15 -20 0 -11 7 -20 15
-20 11 0 15 -13 15 -53 0 -62 11 -77 57 -77 26 0 33 4 33 19 0 13 -8 21 -22
23 -19 2 -24 10 -26 46 -3 39 -1 42 22 42 19 0 26 5 26 20 0 15 -7 20 -25 20
-18 0 -25 5 -25 20 0 13 -7 20 -20 20 -13 0 -20 -7 -20 -20z"/>
<path d="M8331 461 c-25 -16 -6 -36 31 -33 20 2 39 -1 43 -7 4 -7 -6 -11 -28
-11 -38 0 -67 -25 -67 -58 0 -37 25 -51 90 -50 l60 1 0 63 c0 51 -4 68 -20 84
-21 21 -83 27 -109 11z m82 -88 c10 -10 -13 -33 -34 -33 -21 0 -33 15 -24 30
7 11 48 14 58 3z"/>
<path d="M8510 450 c-63 -63 -12 -164 75 -148 28 6 34 -12 10 -32 -13 -11 -30
-11 -74 1 -19 5 -27 -31 -9 -42 7 -5 32 -9 56 -9 32 0 49 6 67 25 23 22 25 31
25 125 0 93 -1 100 -20 100 -11 0 -20 -5 -20 -12 0 -9 -3 -9 -12 0 -19 19 -76
14 -98 -8z m87 -28 c27 -17 19 -70 -12 -78 -31 -8 -55 10 -55 40 0 38 36 58
67 38z"/>
<path d="M8700 385 c0 -83 1 -85 24 -85 23 0 24 2 23 85 0 82 -1 85 -24 85
-22 0 -23 -3 -23 -85z"/>
<path d="M8795 444 c-53 -57 -15 -144 62 -144 47 0 68 13 59 35 -4 13 -13 15
-36 10 -37 -8 -60 8 -60 40 0 32 23 48 59 40 33 -7 49 8 31 30 -21 26 -87 19
-115 -11z"/>
<path d="M9270 414 c0 -54 12 -92 34 -106 17 -12 71 -9 84 4 9 9 12 9 12 0 0
-7 9 -12 20 -12 18 0 20 7 20 85 0 84 0 85 -25 85 -22 0 -24 -4 -27 -56 -2
-40 -8 -60 -20 -67 -29 -19 -48 9 -48 69 0 51 -1 54 -25 54 -24 0 -25 -3 -25
-56z"/>
<path d="M9680 385 c0 -84 0 -85 25 -85 25 0 25 1 25 85 0 84 0 85 -25 85 -25
0 -25 -1 -25 -85z"/>
<path d="M9784 446 c-22 -18 -28 -32 -27 -61 3 -114 173 -114 173 0 0 76 -87
112 -146 61z m85 -25 c18 -11 18 -61 0 -72 -25 -16 -49 -10 -60 15 -21 44 19
83 60 57z"/>
</g>
</svg>
